<?xml version="1.0" encoding="utf-8"?>
<!-- Generator: Adobe Illustrator 17.0.0, SVG Export Plug-In . SVG Version: 6.00 Build 0)  -->
<!DOCTYPE svg PUBLIC "-//W3C//DTD SVG 1.1//EN" "http://www.w3.org/Graphics/SVG/1.1/DTD/svg11.dtd">
<svg version="1.1" id="Layer_1" xmlns="http://www.w3.org/2000/svg" xmlns:xlink="http://www.w3.org/1999/xlink" x="0px" y="0px"
	 width="40px" height="40px" viewBox="0 0 40 40" enable-background="new 0 0 40 40" xml:space="preserve">
<g>
	<g>
		<circle fill="#89418D" cx="20" cy="20" r="20"/>
	</g>
	<path fill="#FFFFFF" d="M30.903,15.392c-0.092-1.4-1.263-2.497-2.667-2.497h-2.579C24.973,8.917,22.735,6.071,20,6.071
		s-4.973,2.846-5.656,6.824h-2.579c-1.403,0-2.575,1.097-2.668,2.497L8.253,28.224c-0.047,0.735,0.213,1.464,0.717,2.002
		c0.503,0.537,1.214,0.845,1.951,0.845h18.158c0.737,0,1.448-0.308,1.951-0.845c0.503-0.538,0.764-1.268,0.716-2.003L30.903,15.392z
		 M11.018,15.518c0.026-0.392,0.354-0.7,0.748-0.7h2.379c-0.009,0.213-0.02,0.425-0.02,0.642v0.962c0,0.539,0.369,0.962,0.839,0.962
		s0.839-0.423,0.839-0.962V15.46c0-0.216,0.008-0.429,0.018-0.642h8.358c0.01,0.212,0.018,0.425,0.018,0.642v0.962
		c0,0.539,0.369,0.962,0.839,0.962s0.839-0.423,0.839-0.962V15.46c0-0.217-0.011-0.429-0.02-0.642h2.379
		c0.393,0,0.721,0.307,0.747,0.699l0.844,12.832c0.014,0.212-0.055,0.405-0.2,0.56c-0.145,0.155-0.334,0.237-0.547,0.237H10.921
		c-0.213,0-0.402-0.081-0.547-0.237c-0.146-0.155-0.215-0.348-0.201-0.56L11.018,15.518z M16.058,12.895
		C16.649,9.94,18.213,7.762,20,7.762s3.351,2.178,3.943,5.133H16.058z"/>
	<g id="search_1_">
	</g>
</g>
</svg>
