<?xml version="1.0" encoding="utf-8"?>
<!-- Generator: Adobe Illustrator 17.0.0, SVG Export Plug-In . SVG Version: 6.00 Build 0)  -->
<!DOCTYPE svg PUBLIC "-//W3C//DTD SVG 1.1//EN" "http://www.w3.org/Graphics/SVG/1.1/DTD/svg11.dtd">
<svg version="1.1" id="Capa_1" xmlns="http://www.w3.org/2000/svg" xmlns:xlink="http://www.w3.org/1999/xlink" x="0px" y="0px"
	 width="34px" height="34px" viewBox="83 83 34 34" enable-background="new 83 83 34 34" xml:space="preserve">
<g>
	<path fill="#40A035" d="M100,83c-9.389,0-17,7.611-17,17c0,4.66,2.467,8.825,2.467,8.825L83,117l8.81-2.1c0,0,3.458,2.1,8.19,2.1
		c9.389,0,17-7.611,17-17C117,90.611,109.389,83,100,83L100,83z"/>
	<path fill="#FFFFFF" d="M100,83.523c9.088,0,16.483,7.392,16.483,16.477s-7.394,16.477-16.483,16.477
		c-4.521,0-7.89-2.005-7.924-2.025c-0.081-0.049-0.174-0.075-0.267-0.075c-0.053,0-0.105,0.008-0.156,0.024l-7.843,1.791
		l2.148-7.204c0.047-0.144,0.03-0.303-0.047-0.433c-0.024-0.04-2.394-4.103-2.394-8.556C83.518,90.915,90.912,83.523,100,83.523"/>
	<path fill="#40A035" d="M100,85.72c-7.887,0-14.28,6.393-14.28,14.28c0,4.619,2.783,8.471,2.783,8.471l-1.407,4.662l5.034-1.216
		c0,0,3.499,2.362,7.87,2.362c7.887,0,14.28-6.394,14.28-14.28C114.28,92.114,107.886,85.72,100,85.72z M107.958,106.633
		c-1.009,1.09-3.157,1.594-4.173,1.31c-1.016-0.284-4.377-1.163-6.569-3.208c-2.192-2.044-3.967-4.196-4.693-5.783
		c-0.726-1.587-0.686-2.528-0.645-2.972c0.04-0.444,0.273-2.5,1.649-3.382c0,0,0.459-0.291,0.699-0.291c0.24,0,1.339,0,1.339,0
		s0.359,0.063,0.524,0.437c0.165,0.374,1.294,3.027,1.378,3.232c0.084,0.205,0.303,0.711-0.048,1.164
		c-0.352,0.454-1.087,1.3-1.087,1.3s-0.291,0.262-0.039,0.679c0.252,0.417,1.14,1.794,2.3,2.834c1.161,1.04,2.582,1.805,3.29,2.038
		c0.709,0.233,0.864-0.078,1.135-0.427c0.272-0.349,1.116-1.417,1.116-1.417s0.291-0.427,0.864-0.165
		c0.573,0.262,3.358,1.611,3.358,1.611s0.339,0.058,0.359,0.437C108.734,104.41,108.967,105.543,107.958,106.633z"/>
</g>
</svg>
