<?xml version="1.0" encoding="utf-8"?>
<!-- Generator: Adobe Illustrator 17.0.0, SVG Export Plug-In . SVG Version: 6.00 Build 0)  -->
<!DOCTYPE svg PUBLIC "-//W3C//DTD SVG 1.1//EN" "http://www.w3.org/Graphics/SVG/1.1/DTD/svg11.dtd">
<svg version="1.1" id="Capa_1" xmlns="http://www.w3.org/2000/svg" xmlns:xlink="http://www.w3.org/1999/xlink" x="0px" y="0px"
	 width="550px" height="100px" viewBox="0 0 550 100" enable-background="new 0 0 550 100" xml:space="preserve">
<g opacity="0.25">
	<path d="M52.549,60.16c-0.822,0-1.577,0.469-2.25,1.397c2.462-10.124,5.108-18.772,7.889-25.771
		c2.601-6.545,4.896-10.798,6.819-12.64c0.618-0.577,1.252-0.939,1.881-1.073c0.194,0.03,0.387,0.035,0.547,0.04
		c0.371,0.01,0.927,0.015,1.668,0.015c2.348,0,2.698-1.125,2.698-1.795c0-0.772-0.51-1.461-1.517-2.049
		c-2.886-1.771-5.226-2.638-7.136-2.638c0,0,0,0,0,0c-0.132,0-0.261,0.004-0.387,0.012c-3.385,0.235-6.864,5.116-10.95,15.363
		c-2.304,5.801-4.395,12.118-6.217,18.785c-3.127,0.214-6.289,0.323-9.409,0.323c-3.923,0-7.896-0.171-11.829-0.51
		c2.839-7.167,4.915-12.317,6.176-15.32c3.847-10.164,4.29-12.715,4.29-13.752c0-1.399-0.587-2.133-1.079-2.503
		c-1.857-1.382-2.578-1.572-3.081-1.572c-0.643,0-1.172,0.454-2.096,1.8c-0.96,1.464-2.688,2.554-5.148,3.259
		c-4.061,0.858-8.137,1.731-12.226,2.617C4.421,25.637,1.185,27.6,1.006,30.33c-0.066,1.269,0.303,3.036,1.127,5.415
		c0.674,2.022,1.382,3.676,2.101,4.904c0.46,0.784,1.187,1.215,2.048,1.215c1.143,0,1.881-0.739,1.881-1.881
		c0-0.277-0.046-0.554-0.136-0.825c-0.393-1.257-0.595-2.259-0.595-2.959c0-1.48,1.365-2.907,4.057-4.24
		c1.665-0.805,5.115-2.106,10.246-3.864c2.289-0.795,3.851-1.404,4.927-1.888c-0.736,2.446-1.907,5.516-3.498,9.896
		C21.19,41.516,19.51,45.5,18.163,48.5c-0.013,0-0.026,0-0.04,0c-4.227,0-6.37,1.594-6.37,4.019c0,0.685,0.255,2.179,2.199,6.257
		c-1.107,3.07-2.263,5.611-3.448,7.405c-0.143-0.195-0.307-0.347-0.494-0.549c-1.515-1.726-2.207-2.054-2.825-2.054
		c-0.411,0-1.752,0.175-1.752,2.28c0,2.028-0.035,2.696-0.056,2.909c-0.933,2.05-1.765,3.7-2.474,4.901
		c-0.016,0.027-0.031,0.056-0.044,0.085c-0.467,0.999-0.694,1.797-0.694,2.436c0,1.4,1.487,2.488,4.972,3.639
		c0.393,0.131,0.787,0.198,1.168,0.198c1.278,0,2.368-0.712,3.239-2.117c1.004-1.596,2.662-4.872,5.064-10.012
		c2.237-4.785,3.991-8.786,5.22-11.905c3.002-0.484,6.88-0.73,11.539-0.73c3.158,0,6.74,0.113,10.662,0.336
		c-1.896,8.339-2.819,14.054-2.819,17.452c0,2.304,0.422,3.563,1.367,4.083c3.029,1.656,3.918,1.884,4.427,1.884
		c1.802,0,2.147-2.581,2.26-3.429c0.215-1.394,0.861-3.464,1.918-6.133c0.007-0.017,0.013-0.034,0.019-0.051
		c0.043-0.118,0.42-1.04,2.424-5.776c0.288-0.754,0.421-1.332,0.421-1.8C54.044,60.676,53.293,60.16,52.549,60.16z"/>
	<path d="M81.66,61.794c-0.641,0-1.25,0.285-1.81,0.846c-5.804,5.86-10.353,9.399-13.523,10.519
		c-0.525,0.165-0.84,0.202-1.007,0.202c-0.362,0-0.432-0.799-0.441-1.276c-0.056-2.427,0.311-5.263,1.09-8.434
		c0.523-2.241,0.936-3.546,1.24-4.307c2.414,0.535,4.15,0.795,5.292,0.795c2.436,0,4.655-0.714,6.595-2.121
		c2.207-1.591,3.328-4.36,3.328-8.231c0-0.519-0.015-1.542-0.043-3.071c-0.028-1.506-0.043-2.788-0.043-3.809
		c0-0.273,0.036-0.58,0.107-0.913c0.126-0.588,0.151-1.256,0.151-1.403c0-1.077-0.951-2.091-2.827-2.091h-2.021
		c-0.073,0-0.146,0.476-0.218,0.492c-0.288,0.066-0.998,0.534-1.341,1.285c-1.758-0.709-2.401-0.701-2.785-0.701
		c-1.382,0-2.797,0.963-4.325,2.824c-2.002,2.368-4.179,6.196-6.636,11.615c-0.304-0.079-0.607-0.104-0.906-0.104
		c-1.389,0-1.881,0.859-1.881,1.588c0,0.887,0.672,1.539,1.392,2.005c-1.452,4.505-2.438,8.691-2.932,12.45
		c-0.061,0.358-0.094,0.746-0.094,1.117c0,2.059,1.23,3.696,3.656,4.865c2.223,1.985,4.077,2.951,5.665,2.951
		c2.032,0,5.848-1.425,15.477-13.749c0.417-0.5,0.637-1.043,0.637-1.591C83.456,62.482,82.751,61.794,81.66,61.794z M75.523,45.303
		c0.204-0.155,0.363-0.26,0.484-0.33c0.017,0.132,0.03,0.313,0.03,0.557c0,1.948,0.007,3.409,0.019,4.383
		c0.008,0.633,0.015,1.128,0.07,1.502c-0.13,1.404-0.497,2.416-1.093,3.012c-0.872,0.871-2.229,1.313-4.034,1.313
		c-0.144,0-0.292-0.003-0.441-0.008c-0.646-0.039-1.206-0.078-1.674-0.117C70.83,50.754,73.061,47.288,75.523,45.303z"/>
	<path d="M164.993,60.375c-0.462,0-1.086,0.149-1.673,0.773c1.402-4.719,2.233-9.573,2.478-14.495
		c0.133-2.765-1.184-4.547-3.716-5.049c-1.371-1.199-2.559-1.783-3.626-1.783c-0.916,0-1.78,0.38-2.567,1.13
		c-3.784,3.547-7.949,8.686-12.414,15.312c0.547-3.24,0.823-6.745,0.823-10.475c0-1.338-0.285-2.33-0.872-3.034
		c-0.011-0.013-0.023-0.027-0.035-0.039c-0.468-0.504-1.288-1.005-2.58-1.577c-1.393-0.868-2.414-1.273-3.211-1.273
		c-0.82,0-1.634,0.36-2.419,1.07c-3.355,2.958-6.952,7.498-10.727,13.537c0.618-2.795,1.124-5.699,1.513-8.688
		c0.066-0.31,0.099-0.612,0.099-0.898c0-1.147-0.519-2.026-1.461-2.474c-0.029-0.014-0.059-0.026-0.089-0.037l-0.704-0.253
		l-1.243-0.448c-1.275-1.25-1.863-1.507-2.384-1.507c-1.029,0-1.806,0.921-2.301,1.613c-1.45,2.082-2.921,3.906-4.383,5.457
		c0.062-0.919,0.095-1.846,0.095-2.781c0-1.364-0.385-2.327-1.145-2.863c-0.436-0.317-1.182-0.531-2.462-0.698
		c-0.988-0.73-1.783-1.072-2.488-1.072c-0.933,0-1.877,0.704-3.062,2.283c-2.972,3.985-5.774,8.369-8.382,13.108
		c0.08-0.239,0.162-0.481,0.245-0.725c2.234-6.448,3.103-8.117,3.422-8.538c0.476-0.612,0.654-1.233,0.522-1.835
		c-0.134-0.608-0.565-1.104-1.283-1.475c-2.288-1.164-3.119-1.313-3.588-1.313c-1.099,0-2.075,0.77-2.981,2.353
		c-2.31,3.408-4.179,5.975-5.555,7.633c-0.013,0.016-0.026,0.032-0.038,0.049c-0.353,0.484-0.531,0.967-0.531,1.436
		c0,0.971,0.687,1.623,1.709,1.623c0.725,0,1.35-0.338,1.76-0.951c0.15-0.218,0.364-0.494,0.638-0.827
		c-1.998,5.911-3.9,12.807-5.674,20.577c-0.559,2.486,0.703,3.53,1.505,3.931c3.216,1.608,3.545,1.608,3.835,1.608
		c1.247,0,2.153-1.434,3.343-5.291c2.904-9.504,7.35-18.196,13.214-25.836c0.074-0.099,0.144-0.189,0.209-0.273
		c-0.134,1.331-0.504,2.985-1.104,4.936c-0.622,1.918,0.25,3.011,0.825,3.49c1.939,1.616,2.718,1.947,3.292,1.947
		c1.022,0,1.771-0.754,2.226-2.24c0.436-1.483,0.761-3.012,1.013-4.565c0.301,0.245,0.672,0.355,1.018,0.355
		c0.562,0,1.112-0.277,1.681-0.846c0.509-0.509,1.285-1.263,2.307-2.243c0.194-0.186,0.377-0.362,0.551-0.529
		c-0.147,3.043-0.877,7.279-2.179,12.642c-1.44,5.899-2.741,10.128-3.868,12.574c-0.772,0.83-1.104,1.439-1.104,2.019
		c0,0.449,0.199,1.094,1.135,1.64c2.543,1.841,3.479,2.091,4.058,2.091c1.269,0,1.92-1.434,2.345-2.684
		c1.748-5.186,4.438-10.822,7.997-16.754c3.684-6.187,7.057-10.588,10.025-13.084c0.256-0.218,0.444-0.341,0.573-0.411
		c0.007,0.07,0.012,0.157,0.012,0.264c0,8.635-1.872,17.699-5.563,26.942c-0.715,1.763-0.715,1.816-0.715,2.04
		c0,0.462,0.181,1.145,1.045,1.778c0.97,0.689,1.991,1.223,3.048,1.596c0.601,0.209,1.038,0.306,1.378,0.306
		c0.236,0,0.449-0.047,0.633-0.138c0.022-0.011,0.044-0.023,0.066-0.036c0.401-0.241,0.65-0.692,0.952-1.726
		c1.875-5.849,5.147-12.261,9.719-19.033c3.798-5.597,6.915-9.543,9.266-11.45c0.673-0.555,1.015-0.737,1.103-0.737
		c0.01,0,0.019,0,0.027,0c0.025,0,0.07,0.353,0.07,0.665c0.055,2.949-0.678,7.332-2.181,12.909
		c-1.514,5.618-3.358,11.012-5.48,15.964c-0.318,0.742-0.466,1.319-0.466,1.779c0,1.355,1.759,2.086,3.661,2.665
		c0.741,0.225,1.287,0.333,1.718,0.333c0.302,0,0.557-0.05,0.777-0.156c0.369-0.16,0.607-0.507,1.1-1.412
		c3.673-6.976,6.462-11.893,8.296-14.629c0.375-0.583,0.553-1.094,0.553-1.576C166.617,61.045,165.964,60.375,164.993,60.375z"/>
	<path d="M199.588,44.228c-2.176-1.622-3.01-1.955-3.592-1.955c-1.116,0-1.679,1.207-1.975,2.088
		c-0.027-0.026-0.055-0.052-0.084-0.078c-4.066-3.744-5.603-4.282-6.487-4.331l-0.125-0.003c-1.314,0-2.691,0.692-4.211,2.114
		c-4.209,3.918-7.988,8.792-11.232,14.484c-3.26,5.721-5.182,10.829-5.711,15.18c-0.061,0.425-0.093,0.833-0.093,1.193
		c0,1.918,0.933,3.504,2.7,4.59c1.26,0.981,2.162,1.42,2.923,1.42c0.853,0,1.905-0.451,3.308-1.42
		c1.75-1.237,4.464-3.96,8.306-8.329c2.45-2.794,4.626-5.47,6.507-8.007c-0.956,3.537-1.803,7.527-2.532,11.931
		c-0.176,1.156-0.159,1.899,0.054,2.409c0.205,0.56,0.733,1.101,1.702,1.747c1.948,1.356,2.738,1.54,3.252,1.54
		c1.033,0,1.745-0.836,2.116-2.484c0.859-3.935,2.618-7.886,5.231-11.749c0.346-0.518,0.512-0.991,0.512-1.451
		c0-0.971-0.652-1.623-1.623-1.623c-0.518,0-1.28,0.189-2.003,1.078c-0.101,0.094-0.25,0.246-0.503,0.53
		c1.055-4.187,2.592-9.084,4.588-14.615c0.387-1.055,0.521-1.766,0.432-2.299C200.952,45.531,200.474,44.883,199.588,44.228z
		 M192.385,48.676c-1.022,2.404-3.411,6.065-7.099,10.879c-3.621,4.667-7.063,8.597-10.226,11.676
		c-1.38,1.379-2.238,1.691-2.679,1.737c-0.002-0.026-0.003-0.056-0.003-0.09c0-0.125,0.011-0.267,0.033-0.421
		c0.744-4.406,2.994-9.487,6.685-15.079c3.19-4.869,6.119-8.3,8.706-10.199c0.472-0.352,1.01-0.52,1.65-0.52
		c0.662,0,1.433,0.184,2.292,0.547c0.317,0.136,0.663,0.206,1.026,0.206c0.048,0,0.095-0.001,0.141-0.003
		C192.754,47.796,192.578,48.219,192.385,48.676z"/>
	<path d="M236.071,59.171c-0.371,0-0.925,0.138-1.452,0.797c-0.057,0.075-0.114,0.15-0.171,0.224
		c0.279-1.167,0.567-2.448,0.86-3.839c0.997-4.549,1.483-7.782,1.483-9.877c0.024-1.599-0.662-3.766-4.036-5
		c-0.981-0.727-1.686-1.053-2.275-1.053c-0.533,0-1.241,0.212-2.295,0.689c-1.945,0.91-4.731,3.651-8.53,8.385
		c-1.468,1.829-2.803,3.598-4.001,5.301c1.274-4.117,2.003-7.174,2.212-9.257c0.13-1.297-0.401-3.037-3.576-4.096
		c-0.664-1.107-1.494-1.667-2.471-1.667c-0.749,0-1.445,0.357-2.067,1.062c-1.999,2.342-3.632,4.32-4.862,5.892
		c-0.446,0.461-0.672,0.939-0.672,1.42c0,0.722,0.489,1.451,1.58,1.451c0.565,0,1.094-0.226,1.531-0.653
		c1.127-1.01,2.067-1.879,2.801-2.592c-0.316,3.23-1.278,7.644-2.864,13.132c-1.612,5.513-3.259,10.127-4.895,13.711
		c-0.48,1.046-0.561,1.342-0.561,1.61c0,0.04,0.002,0.08,0.007,0.119c0.097,0.79,0.838,1.219,1.473,1.504
		c1.606,0.788,2.74,1.161,3.54,1.161c1.303,0,2.385-0.932,3.214-2.769c5.2-11.645,11.437-21.063,18.539-27.996
		c0.359-0.345,0.612-0.542,0.781-0.655c0.038,0.168,0.077,0.427,0.095,0.817c0.222,3.027-0.448,7.49-1.989,13.292
		c-1.44,5.562-3.095,10.259-4.92,13.966c-0.545,1.004-0.66,1.436-0.66,1.765c0,1.205,1.304,1.879,2.284,2.281
		c1.123,0.481,1.994,0.718,2.65,0.718c0.739,0,1.769-0.331,2.483-1.908c0.009-0.019,0.016-0.038,0.024-0.057
		c0.476-1.259,0.972-2.536,1.475-3.795c2.714-4.888,4.947-8.668,6.639-11.234c0.047-0.071,0.084-0.148,0.111-0.229
		c0.09-0.271,0.136-0.549,0.136-0.825C237.695,59.642,236.82,59.171,236.071,59.171z"/>
	<path d="M269.557,49.594c0.064-1.77-0.413-3.416-1.419-4.877c-1.573-2.392-3.064-3.563-4.547-3.563
		c-0.599,0-1.403,0.171-2.459,0.523c-0.022,0.007-0.044,0.016-0.066,0.025c-1.386,0.576-2.439,1.023-3.143,1.337
		c-2.169-1.928-3.737-2.831-4.909-2.831c-1.034,0-2.141,0.706-3.484,2.221c-2.419,2.685-4.769,7.103-6.98,13.126
		c-2.033,5.599-3.079,9.86-3.198,13.028c-0.127,2.895,0.849,5.309,2.901,7.169c1.833,1.646,4.21,2.581,7.072,2.782
		c1.401,0.382,2.539,0.568,3.475,0.568c2.481,0,4.748-1.089,6.738-3.237c3.501-3.765,6.239-9.109,8.136-15.881
		C268.864,55.711,269.498,52.216,269.557,49.594z M249.455,74.656c-0.718,0-2.902,0-2.902-5.476c0-1.252,0.153-2.664,0.455-4.197
		c0.421-2.326,1.186-4.99,2.279-7.932c1.169-3.134,2.425-5.666,3.74-7.549c0.19,0.115,0.414,0.188,0.675,0.188
		c0.221,0,0.459-0.038,1.703-0.545l6.598-2.682c0.433-0.104,0.682-0.127,0.816-0.127c0.006,0,0.01-0.001,0.012-0.002
		c0.036,0.065,0.127,0.287,0.127,0.829c0,0.327-0.051,1.209-0.296,3.553c-0.446,4.409-1.665,8.926-3.622,13.428
		c-2.011,4.71-4.164,7.865-6.403,9.384c-1.09,0.718-2.104,1.098-3.002,1.122C249.563,74.654,249.509,74.656,249.455,74.656z"/>
	<path d="M290.68,39.521c-0.431,0-1.106,0.141-3.103,1.157c-0.313,0.122-0.784,0.376-1.132,0.875
		c-0.308-0.387-0.775-0.568-1.24-0.568c0,0,0,0,0,0c-0.17,0-0.354,0.022-0.546,0.066c-6.834,1.502-10.434,4.319-10.693,8.374
		c-0.127,1.645,0.711,4.7,2.562,9.327c1.751,4.42,2.64,7.51,2.64,9.182c0,0.833-0.149,1.53-0.442,2.071
		c-0.009,0.017-0.018,0.034-0.026,0.051c-0.495,1.058-1.306,1.709-2.478,1.989c-3.923,0.564-6.922,0.921-8.916,1.061
		c-2.503,0.24-3.178,1.334-3.307,2.209c-0.017,0.112-0.014,0.225,0.009,0.336c0.225,1.12,0.951,1.837,2.046,2.02
		c2.48,0.375,4.557,0.69,6.248,0.948c0.722,0.109,1.424,0.165,2.087,0.165c0.27,0,0.534-0.009,0.794-0.027
		c1.546-0.137,2.738-0.642,3.563-1.503c0.469-0.5,0.927-1.281,1.403-2.387c5.033-1.797,6.03-5.247,5.965-7.86
		c-0.03-1.768-0.581-4.241-1.684-7.552c-1.418-4.365-2.279-7.155-2.558-8.288c-0.267-1.08-0.402-1.977-0.402-2.669
		c0-1.543,1.365-2.919,4.056-4.091c0.212-0.093,0.39-0.197,0.539-0.308c0.041,0.785-0.094,2.306-0.806,5.243
		c-0.136,0.61-0.2,1.087-0.2,1.478c0,1.357,0.875,1.838,1.624,1.838c0.295,0,0.781-0.081,2.325-0.665
		c1.186-0.408,1.574-0.635,1.806-0.867c0.436-0.394,0.8-1.146,1.115-2.335c0.718-2.961,1.065-5.062,1.065-6.442
		C292.993,39.725,291.223,39.521,290.68,39.521z"/>
	<path d="M347.054,56.118c-0.372,0-1.603,0.129-1.829,1.792c-0.122,1.019-0.461,1.81-1.039,2.435
		c-2.231,2.369-5.07,4.739-8.434,7.037c-3.515,2.399-6.639,4.035-9.286,4.862c-1.015,0.312-1.917,0.471-2.676,0.471
		c-1.266,0-2.37-0.405-3.373-1.237c-1.385-1.161-2.072-2.917-2.098-5.363c-0.111-4.558,1.254-10.357,4.056-17.251
		c2.707-6.654,5.948-12.481,9.634-17.319c3.831-4.964,7.113-7.484,9.752-7.484c1.09,0,2.254,0.519,3.498,1.542
		c-0.478,4.769-1.848,8.933-4.077,12.389c-1.124,0.434-1.256,1.336-1.256,1.732c0,2.102,2.983,3.005,3.963,3.301
		c0.548,0.172,1.024,0.257,1.445,0.257c1.189,0,2.267-0.863,3.297-2.638c1.842-3.099,3.485-7.543,4.878-13.2
		c0.342-1.429,0.5-2.362,0.5-2.943c0-1.059-0.648-2.101-1.926-3.094c-1.881-1.452-3.139-2.098-4.083-2.098
		c-0.471,0-1.186,0.163-1.671,1.021c-2.696-2.195-2.856-2.301-2.947-2.362c-1.37-0.954-2.607-1.422-3.765-1.422
		c-0.116,0-0.232,0.005-0.345,0.015c-3.033,0.221-6.767,2.889-11.401,8.154c-4.631,5.296-8.574,11.511-11.723,18.475
		c-3.681,8.059-5.549,15.719-5.549,22.763c0,4.663,2.951,8.165,8.771,10.41c1.413,1.674,3.419,2.522,5.967,2.522
		c1.194,0,2.52-0.184,3.94-0.546c4.463-1.145,9.845-4.065,15.997-8.679c1.982-1.509,3.211-2.508,3.761-3.058
		c0.968-1.039,1.447-2.16,1.447-3.358c0-1.139-0.529-3.017-1.618-5.738C348.395,56.3,347.528,56.118,347.054,56.118z"/>
	<path d="M382.044,49.594c0.065-1.77-0.413-3.415-1.418-4.877c-1.573-2.392-3.064-3.563-4.548-3.563
		c-0.599,0-1.403,0.171-2.459,0.523c-0.022,0.007-0.044,0.016-0.066,0.025c-1.387,0.576-2.44,1.024-3.143,1.337
		c-2.169-1.929-3.737-2.831-4.909-2.831c-1.034,0-2.141,0.706-3.484,2.221c-2.418,2.684-4.769,7.102-6.98,13.126
		c-2.005,5.521-3.08,9.903-3.197,13.028c-0.127,2.895,0.849,5.309,2.901,7.169c1.833,1.646,4.21,2.581,7.071,2.782
		c1.401,0.382,2.539,0.568,3.476,0.568c2.481,0,4.747-1.089,6.738-3.237c3.5-3.765,6.238-9.108,8.136-15.881
		C381.351,55.713,381.985,52.217,382.044,49.594z M361.941,74.656c-0.718,0-2.901,0-2.901-5.476c0-1.253,0.153-2.665,0.454-4.197
		c0.421-2.326,1.186-4.99,2.279-7.932c1.169-3.134,2.424-5.666,3.74-7.549c0.19,0.115,0.414,0.188,0.675,0.188
		c0.221,0,0.46-0.038,1.704-0.545l6.596-2.682c0.434-0.104,0.682-0.127,0.816-0.127c0.006,0,0.01-0.001,0.012-0.002
		c0.036,0.065,0.127,0.287,0.127,0.829c0,0.328-0.051,1.211-0.295,3.554c-0.446,4.407-1.665,8.924-3.622,13.428
		c-2.01,4.709-4.164,7.864-6.404,9.384c-1.09,0.718-2.103,1.098-3.002,1.122C362.049,74.654,361.995,74.656,361.941,74.656z"/>
	<path d="M409.134,43.81c0-0.789-0.515-1.709-1.967-1.709c-1.074,0-3.591-0.297-7.491-0.884
		c7.35-20.294,11.034-25.959,12.835-27.112c0.579-0.356,1.241-0.534,2.009-0.534c1.09,0,2.394,0.408,3.877,1.214
		c0.449,0.226,0.9,0.334,1.369,0.334c1.516,0,2.054-0.99,2.054-1.838c0-0.48-0.181-1.186-1.045-1.821
		c-4.605-3.341-7.872-4.963-9.995-4.963c-2.389,0-4.71,2.136-7.096,6.532c-2.649,4.896-6.331,14.146-10.943,27.495
		c-0.017,0.052-0.175,0.428-1.423,0.789c-1.309,0.285-2.636,0.588-3.944,0.901c-1.415,0.354-2.127,1.006-2.127,1.941
		c0,0.218,0.023,0.379,0.547,1.66c0.006,0.016,0.013,0.031,0.02,0.046c0.259,0.551,0.815,1.244,1.993,1.412
		c0.026,0.004,0.051,0.006,0.077,0.008c0.092,0.006,0.214,0.009,0.366,0.009c0.478,0,1.259-0.031,2.371-0.094
		c-5.802,18.274-9.933,33.821-12.279,46.226c-0.232,1.363,0.098,3.316,2.963,4.984c2.306,1.4,3.068,1.595,3.544,1.595
		c0.723,0,1.452-0.515,1.452-1.666c0-0.363-0.046-0.852-0.14-1.496c-0.097-0.666-0.118-1.004-0.118-1.17
		c0-3.357,0.889-9.088,2.643-17.032c2.151-9.722,5.165-20.367,8.961-31.648c3.273-0.191,6.533-0.588,9.7-1.184
		C408.476,45.559,409.134,44.816,409.134,43.81z"/>
	<path d="M432.139,55.491c1.029-3.497,1.549-7.207,1.549-11.036c0-1.363-0.386-2.327-1.146-2.863
		c-0.435-0.316-1.181-0.531-2.461-0.698c-0.988-0.73-1.784-1.072-2.489-1.072c-0.932,0-1.876,0.704-3.061,2.283
		c-2.972,3.985-5.775,8.369-8.384,13.109c0.081-0.24,0.162-0.482,0.245-0.727c2.235-6.448,3.104-8.117,3.423-8.538
		c0.476-0.612,0.654-1.232,0.522-1.834c-0.134-0.608-0.565-1.104-1.282-1.475c-2.288-1.164-3.12-1.313-3.589-1.313
		c-1.099,0-2.074,0.77-2.981,2.353c-2.311,3.409-4.179,5.977-5.554,7.633c-0.013,0.016-0.026,0.032-0.038,0.048
		c-0.353,0.484-0.532,0.967-0.532,1.436c0,0.971,0.687,1.623,1.709,1.623c0.726,0,1.351-0.338,1.76-0.952
		c0.15-0.218,0.363-0.493,0.638-0.826c-1.997,5.909-3.9,12.805-5.674,20.576c-0.558,2.486,0.704,3.53,1.506,3.931
		c3.215,1.608,3.544,1.608,3.834,1.608c1.247,0,2.153-1.434,3.343-5.291c2.905-9.504,7.351-18.196,13.215-25.836
		c0.074-0.098,0.143-0.188,0.208-0.271c-0.134,1.332-0.504,2.985-1.104,4.935c-0.622,1.918,0.249,3.011,0.825,3.49
		c1.939,1.616,2.718,1.947,3.292,1.947C430.935,57.731,431.684,56.978,432.139,55.491z"/>
	<path d="M461.99,61.493c-0.518,0-1.28,0.189-2.003,1.078c-0.101,0.094-0.25,0.246-0.503,0.53c1.055-4.187,2.592-9.084,4.589-14.616
		c0.387-1.054,0.52-1.765,0.431-2.299c-0.093-0.655-0.571-1.303-1.457-1.959c-2.176-1.622-3.01-1.955-3.592-1.955
		c-1.117,0-1.68,1.208-1.975,2.089c-0.027-0.026-0.055-0.052-0.084-0.078c-4.065-3.744-5.602-4.282-6.486-4.331l-0.125-0.003
		c-1.314,0-2.691,0.692-4.211,2.114c-4.209,3.919-7.989,8.792-11.233,14.484c-3.26,5.721-5.182,10.829-5.711,15.18
		c-0.061,0.425-0.093,0.833-0.093,1.193c0,1.917,0.933,3.503,2.7,4.59c1.259,0.981,2.162,1.42,2.922,1.42
		c0.853,0,1.905-0.451,3.308-1.42c1.749-1.237,4.464-3.959,8.307-8.329c2.45-2.793,4.625-5.469,6.507-8.007
		c-0.956,3.536-1.803,7.526-2.531,11.931c-0.176,1.155-0.16,1.899,0.054,2.409c0.205,0.56,0.732,1.101,1.701,1.747
		c1.949,1.356,2.739,1.54,3.253,1.54c1.032,0,1.744-0.836,2.115-2.484c0.859-3.934,2.619-7.885,5.232-11.749
		c0.346-0.518,0.512-0.991,0.512-1.451C463.615,62.146,462.962,61.493,461.99,61.493z M455.843,48.676
		c-1.022,2.404-3.411,6.065-7.099,10.879c-3.621,4.667-7.062,8.597-10.226,11.676c-1.379,1.379-2.237,1.691-2.678,1.737
		c-0.002-0.026-0.003-0.056-0.003-0.09c0-0.13,0.011-0.271,0.032-0.421c0.744-4.404,2.994-9.486,6.686-15.079
		c3.19-4.869,6.119-8.3,8.706-10.199c0.472-0.352,1.01-0.52,1.65-0.52c0.662,0,1.433,0.184,2.293,0.547
		c0.315,0.136,0.662,0.206,1.025,0.206c0.048,0,0.095-0.001,0.141-0.003C456.211,47.796,456.036,48.219,455.843,48.676z"/>
	<path d="M497.68,61.536c-0.691,0-1.381,0.488-2.384,1.683c-0.249,0.3-0.488,0.584-0.716,0.852
		c3.603-19.683,9.16-35.747,16.534-47.786c2.428-3.949,4.089-4.779,5.056-4.779c0.285,0,0.999,0.116,2.58,0.889
		c0.413,0.207,0.836,0.315,1.248,0.315c1.484,0,2.01-0.967,2.01-1.795c0-0.439-0.157-1.08-0.907-1.643
		c-1.433-1.153-2.88-2.326-4.31-3.5c-1.482-1.113-2.687-1.641-3.717-1.641c-1.004,0-2.014,0.483-3.001,1.435
		c-2.273,2.094-4.82,6.042-7.767,12.056c-3.635,7.413-6.977,16.443-9.935,26.845c-0.057-0.062-0.119-0.123-0.187-0.184
		c-4.026-3.744-5.631-4.283-6.578-4.331l-0.12-0.002c-1.314,0-2.691,0.692-4.211,2.114c-4.206,3.887-7.993,8.747-11.252,14.44
		c-3.271,5.713-5.243,10.829-5.86,15.205c-0.061,0.333-0.096,0.681-0.096,0.997c0,1.862,1.081,3.477,3.212,4.803
		c1.262,0.983,2.165,1.421,2.926,1.421c0.82,0,1.868-0.449,3.299-1.414c1.687-1.114,4.275-3.667,7.906-7.798
		c2.416-2.747,4.684-5.528,6.777-8.304c-0.591,2.783-1.26,6.182-2.002,10.168c-0.152,0.693-0.232,1.342-0.232,1.899
		c0,1.192,0.392,2.168,1.165,2.902c0.095,0.095,0.305,0.306,2.532,1.82c0.539,0.373,1.03,0.556,1.496,0.556
		c0.986,0,1.733-0.763,2.221-2.268c0.012-0.036,0.021-0.072,0.028-0.109c0.856-4.255,2.638-8.279,5.296-11.961
		c0.25-0.353,0.902-1.272,0.461-2.125C498.971,61.949,498.571,61.536,497.68,61.536z M489.985,47.203
		c0.38,0.144,0.713,0.208,1.031,0.208c0.145,0,0.28-0.01,0.406-0.028c-0.163,0.422-0.339,0.849-0.528,1.28
		c-1.028,2.416-3.416,6.077-7.104,10.891c-3.624,4.67-7.052,8.601-10.187,11.679c-1.435,1.405-2.288,1.701-2.707,1.737
		c-0.011-0.098-0.014-0.264,0.02-0.523c0.635-4.413,2.812-9.488,6.47-15.072c3.162-4.842,6.078-8.273,8.666-10.2
		c0.475-0.345,1.023-0.517,1.666-0.517C488.379,46.658,489.141,46.842,489.985,47.203z"/>
	<path d="M526.652,63.547c0-1.065-0.705-1.752-1.796-1.752c-0.64,0-1.249,0.285-1.81,0.846c-5.805,5.861-10.354,9.399-13.522,10.519
		c-0.525,0.165-0.841,0.202-1.008,0.202c-0.362,0-0.431-0.799-0.44-1.276c-0.056-2.426,0.311-5.262,1.09-8.434
		c0.523-2.242,0.936-3.547,1.24-4.307c2.414,0.535,4.15,0.795,5.292,0.795c2.435,0,4.654-0.714,6.594-2.121
		c2.207-1.591,3.328-4.361,3.328-8.231c0-0.519-0.015-1.542-0.044-3.071c-0.028-1.472-0.042-2.754-0.042-3.809
		c0-0.276,0.036-0.583,0.106-0.913c0.127-0.595,0.152-1.255,0.152-1.403c0-1.077-0.952-2.091-2.828-2.091h-2.02
		c-0.073,0-0.146,0.476-0.218,0.492c-0.288,0.066-0.998,0.534-1.341,1.285c-1.759-0.709-2.401-0.701-2.785-0.701
		c-1.382,0-2.797,0.963-4.324,2.824c-2.002,2.367-4.179,6.194-6.636,11.615c-0.305-0.079-0.608-0.104-0.907-0.104
		c-1.388,0-1.88,0.859-1.88,1.588c0,0.887,0.672,1.539,1.391,2.005c-1.451,4.502-2.436,8.688-2.931,12.45
		c-0.061,0.355-0.094,0.743-0.094,1.117c0,2.06,1.229,3.696,3.655,4.865c2.223,1.985,4.078,2.951,5.666,2.951
		c2.032,0,5.848-1.425,15.477-13.749C526.432,64.637,526.652,64.094,526.652,63.547z M518.72,45.303
		c0.204-0.155,0.363-0.259,0.483-0.33c0.017,0.132,0.03,0.313,0.03,0.557c0,1.948,0.007,3.409,0.02,4.383
		c0.008,0.633,0.015,1.129,0.071,1.503c-0.13,1.403-0.498,2.414-1.094,3.011c-0.872,0.871-2.228,1.313-4.033,1.313
		c-0.144,0-0.292-0.003-0.441-0.008c-0.646-0.039-1.206-0.078-1.674-0.117C514.027,50.753,516.257,47.288,518.72,45.303z"/>
	<path d="M547.69,39.521c-0.431,0-1.106,0.141-3.105,1.157c-0.313,0.122-0.784,0.376-1.132,0.875
		c-0.308-0.387-0.775-0.568-1.24-0.568c0,0,0,0,0,0c-0.17,0-0.354,0.022-0.546,0.066c-6.833,1.501-10.432,4.319-10.692,8.374
		c-0.127,1.647,0.711,4.702,2.562,9.327c1.75,4.417,2.638,7.507,2.638,9.182c0,0.835-0.148,1.532-0.44,2.071
		c-0.009,0.017-0.018,0.034-0.026,0.051c-0.495,1.058-1.306,1.709-2.478,1.989c-3.922,0.564-6.922,0.921-8.917,1.061
		c-2.503,0.24-3.177,1.334-3.307,2.209c-0.016,0.111-0.014,0.225,0.008,0.335c0.224,1.12,0.95,1.838,2.045,2.02
		c2.48,0.375,4.557,0.69,6.249,0.948c0.722,0.109,1.424,0.165,2.086,0.165c0.27,0,0.534-0.009,0.794-0.027
		c1.545-0.137,2.737-0.642,3.563-1.503c0.467-0.498,0.926-1.28,1.403-2.387c5.032-1.796,6.029-5.246,5.963-7.861
		c-0.031-1.772-0.581-4.244-1.684-7.552c-1.417-4.365-2.279-7.156-2.558-8.289c-0.266-1.079-0.401-1.976-0.401-2.668
		c0-1.543,1.365-2.919,4.056-4.091c0.213-0.093,0.391-0.197,0.54-0.308c0.041,0.786-0.094,2.308-0.805,5.243
		c-0.136,0.61-0.2,1.087-0.2,1.478c0,1.357,0.874,1.838,1.622,1.838c0.295,0,0.781-0.081,2.325-0.665
		c1.156-0.398,1.555-0.624,1.789-0.85c0.461-0.428,0.821-1.176,1.132-2.351c0.718-2.961,1.065-5.062,1.065-6.442
		C550,39.725,548.232,39.521,547.69,39.521z"/>
</g>
<g>
	<path fill="#713374" d="M51.551,56.028c-0.822,0-1.577,0.469-2.25,1.397c2.462-10.124,5.108-18.772,7.889-25.771
		c2.601-6.545,4.896-10.798,6.819-12.64c0.618-0.577,1.252-0.939,1.881-1.073c0.194,0.03,0.387,0.035,0.547,0.04
		c0.371,0.01,0.927,0.015,1.668,0.015c2.348,0,2.698-1.125,2.698-1.795c0-0.772-0.51-1.461-1.517-2.049
		c-2.886-1.771-5.226-2.638-7.136-2.638c0,0,0,0,0,0c-0.132,0-0.261,0.004-0.387,0.012c-3.385,0.235-6.864,5.116-10.95,15.363
		c-2.304,5.801-4.395,12.118-6.217,18.785c-3.127,0.214-6.289,0.323-9.409,0.323c-3.923,0-7.896-0.171-11.829-0.51
		c2.839-7.167,4.915-12.317,6.176-15.32c3.847-10.164,4.29-12.715,4.29-13.752c0-1.399-0.587-2.133-1.079-2.503
		c-1.857-1.382-2.578-1.572-3.081-1.572c-0.643,0-1.172,0.454-2.096,1.8c-0.96,1.464-2.688,2.554-5.148,3.259
		c-4.061,0.858-8.137,1.731-12.226,2.617c-6.771,1.488-10.006,3.451-10.186,6.181c-0.066,1.269,0.303,3.036,1.127,5.415
		c0.674,2.022,1.382,3.676,2.101,4.904c0.46,0.784,1.187,1.215,2.048,1.215c1.143,0,1.881-0.739,1.881-1.881
		c0-0.277-0.046-0.554-0.136-0.825c-0.393-1.257-0.595-2.259-0.595-2.959c0-1.48,1.365-2.907,4.057-4.24
		c1.665-0.805,5.115-2.106,10.246-3.864c2.289-0.795,3.851-1.404,4.927-1.888c-0.736,2.446-1.907,5.582-3.498,9.962
		C20.192,37.45,18.512,41.5,17.165,44.5c-0.013,0-0.026,0-0.04,0c-4.227,0-6.37,1.528-6.37,3.953c0,0.685,0.255,2.146,2.199,6.224
		c-1.107,3.07-2.263,5.595-3.448,7.389c-0.143-0.195-0.307-0.356-0.494-0.558c-1.515-1.726-2.207-2.058-2.825-2.058
		c-0.411,0-1.752,0.173-1.752,2.278c0,2.028-0.035,2.695-0.056,2.908c-0.933,2.05-1.765,3.699-2.474,4.9
		c-0.016,0.027-0.031,0.056-0.044,0.085c-0.467,0.999-0.694,1.797-0.694,2.436c0,1.4,1.487,2.488,4.972,3.638
		c0.393,0.131,0.787,0.198,1.168,0.198c1.278,0,2.368-0.712,3.239-2.117c1.004-1.596,2.662-4.872,5.064-10.012
		c2.237-4.785,3.991-8.786,5.22-11.905c3.002-0.484,6.88-0.73,11.539-0.73c3.158,0,6.74,0.113,10.662,0.336
		c-1.896,8.339-2.819,14.054-2.819,17.452c0,2.304,0.422,3.563,1.367,4.083c3.029,1.656,3.918,1.884,4.427,1.884
		c1.802,0,2.147-2.581,2.26-3.429c0.215-1.394,0.861-3.464,1.918-6.133c0.007-0.017,0.013-0.034,0.019-0.051
		c0.043-0.118,0.42-1.04,2.424-5.776c0.288-0.754,0.421-1.332,0.421-1.8C53.046,56.544,52.295,56.028,51.551,56.028z"/>
	<path fill="#713374" d="M80.662,57.662c-0.641,0-1.25,0.285-1.81,0.846c-5.804,5.86-10.353,9.399-13.523,10.519
		c-0.525,0.165-0.84,0.202-1.007,0.202c-0.362,0-0.432-0.799-0.441-1.276c-0.056-2.427,0.311-5.263,1.09-8.434
		c0.523-2.241,0.936-3.546,1.24-4.307c2.414,0.535,4.15,0.795,5.292,0.795c2.436,0,4.655-0.714,6.595-2.121
		c2.207-1.591,3.328-4.36,3.328-8.231c0-0.519-0.015-1.542-0.043-3.071c-0.028-1.506-0.043-2.788-0.043-3.809
		c0-0.273,0.036-0.58,0.107-0.913c0.126-0.588,0.151-1.19,0.151-1.337c0-1.077-0.951-2.025-2.827-2.025h-2.021
		c-0.073,0-0.146,0.409-0.218,0.426c-0.288,0.066-0.998,0.501-1.341,1.252c-1.758-0.709-2.401-0.717-2.785-0.717
		c-1.382,0-2.797,0.955-4.325,2.816c-2.002,2.368-4.179,6.192-6.636,11.611c-0.304-0.079-0.607-0.106-0.906-0.106
		c-1.389,0-1.881,0.858-1.881,1.587c0,0.887,0.672,1.538,1.392,2.004c-1.452,4.505-2.438,8.691-2.932,12.45
		c-0.061,0.358-0.094,0.746-0.094,1.117c0,2.059,1.23,3.696,3.656,4.865c2.223,1.985,4.077,2.951,5.665,2.951
		c2.032,0,5.848-1.425,15.477-13.749c0.417-0.5,0.637-1.043,0.637-1.591C82.457,58.35,81.753,57.662,80.662,57.662z M74.525,41.171
		c0.204-0.155,0.363-0.26,0.484-0.33c0.017,0.132,0.03,0.313,0.03,0.557c0,1.948,0.007,3.409,0.019,4.383
		c0.008,0.633,0.015,1.128,0.07,1.502c-0.13,1.404-0.497,2.416-1.093,3.012c-0.872,0.871-2.229,1.313-4.034,1.313
		c-0.144,0-0.292-0.003-0.441-0.008c-0.646-0.039-1.206-0.078-1.674-0.117C69.832,46.622,72.062,43.156,74.525,41.171z"/>
	<path fill="#713374" d="M163.995,56.243c-0.462,0-1.086,0.149-1.673,0.773c1.402-4.719,2.233-9.573,2.478-14.495
		c0.133-2.765-1.184-4.547-3.716-5.049c-1.371-1.199-2.559-1.783-3.626-1.783c-0.916,0-1.78,0.38-2.567,1.13
		c-3.784,3.547-7.949,8.686-12.414,15.312c0.547-3.24,0.823-6.745,0.823-10.475c0-1.338-0.285-2.33-0.872-3.034
		c-0.011-0.013-0.023-0.027-0.035-0.039c-0.468-0.504-1.288-1.005-2.58-1.577c-1.393-0.868-2.414-1.273-3.211-1.273
		c-0.82,0-1.634,0.36-2.419,1.07c-3.355,2.958-6.952,7.498-10.727,13.537c0.618-2.795,1.124-5.699,1.513-8.688
		c0.066-0.31,0.099-0.612,0.099-0.898c0-1.147-0.519-2.026-1.461-2.474c-0.029-0.014-0.059-0.026-0.089-0.037l-0.704-0.253
		l-1.243-0.448c-1.275-1.25-1.863-1.507-2.384-1.507c-1.029,0-1.806,0.921-2.301,1.613c-1.45,2.082-2.921,3.906-4.383,5.457
		c0.062-0.919,0.095-1.846,0.095-2.781c0-1.364-0.385-2.327-1.145-2.863c-0.436-0.317-1.182-0.531-2.462-0.698
		c-0.988-0.73-1.783-1.072-2.488-1.072c-0.933,0-1.877,0.704-3.062,2.283c-2.972,3.985-5.774,8.369-8.382,13.108
		c0.08-0.239,0.162-0.481,0.245-0.725c2.234-6.448,3.103-8.117,3.422-8.538c0.476-0.612,0.654-1.233,0.522-1.835
		c-0.134-0.608-0.565-1.104-1.283-1.475c-2.288-1.164-3.119-1.313-3.588-1.313c-1.099,0-2.075,0.77-2.981,2.353
		c-2.31,3.408-4.179,5.975-5.555,7.633c-0.013,0.016-0.026,0.032-0.038,0.049c-0.353,0.484-0.531,0.967-0.531,1.436
		c0,0.971,0.687,1.623,1.709,1.623c0.725,0,1.35-0.338,1.76-0.951c0.15-0.218,0.364-0.494,0.638-0.827
		c-1.998,5.911-3.9,12.807-5.674,20.577c-0.559,2.486,0.703,3.53,1.505,3.931c3.216,1.608,3.545,1.608,3.835,1.608
		c1.247,0,2.153-1.434,3.343-5.291c2.904-9.504,7.35-18.196,13.214-25.836c0.074-0.099,0.144-0.189,0.209-0.273
		c-0.134,1.331-0.504,2.985-1.104,4.936c-0.622,1.918,0.25,3.011,0.825,3.49c1.939,1.616,2.718,1.947,3.292,1.947
		c1.022,0,1.771-0.754,2.226-2.24c0.436-1.483,0.761-3.012,1.013-4.565c0.301,0.245,0.672,0.355,1.018,0.355
		c0.562,0,1.112-0.277,1.681-0.846c0.509-0.509,1.285-1.263,2.307-2.243c0.194-0.186,0.377-0.362,0.551-0.529
		c-0.147,3.043-0.877,7.279-2.179,12.642c-1.44,5.899-2.741,10.128-3.868,12.574c-0.772,0.83-1.104,1.439-1.104,2.019
		c0,0.449,0.199,1.094,1.135,1.64c2.543,1.841,3.479,2.091,4.058,2.091c1.269,0,1.92-1.434,2.345-2.684
		c1.748-5.186,4.438-10.822,7.997-16.754c3.684-6.187,7.057-10.588,10.025-13.084c0.256-0.218,0.444-0.341,0.573-0.411
		c0.007,0.07,0.012,0.157,0.012,0.264c0,8.635-1.872,17.699-5.563,26.942c-0.715,1.763-0.715,1.816-0.715,2.04
		c0,0.462,0.181,1.145,1.045,1.778c0.97,0.689,1.991,1.223,3.048,1.596c0.601,0.209,1.038,0.306,1.378,0.306
		c0.236,0,0.449-0.047,0.633-0.138c0.022-0.011,0.044-0.023,0.066-0.036c0.401-0.241,0.65-0.692,0.952-1.726
		c1.875-5.849,5.147-12.261,9.719-19.033c3.798-5.597,6.915-9.477,9.266-11.384c0.673-0.555,1.015-0.671,1.103-0.671
		c0.01,0,0.019,0,0.027,0c0.025,0,0.07,0.287,0.07,0.599c0.055,2.949-0.678,7.299-2.181,12.876
		c-1.514,5.618-3.358,10.996-5.48,15.947c-0.318,0.742-0.466,1.311-0.466,1.771c0,1.355,1.759,2.082,3.661,2.661
		c0.741,0.225,1.287,0.331,1.718,0.331c0.302,0,0.557-0.051,0.777-0.157c0.369-0.16,0.607-0.508,1.1-1.412
		c3.673-6.976,6.462-11.894,8.296-14.629c0.375-0.583,0.553-1.094,0.553-1.577C165.618,56.913,164.966,56.243,163.995,56.243z"/>
	<path fill="#713374" d="M198.59,40.095c-2.176-1.622-3.01-1.955-3.592-1.955c-1.116,0-1.679,1.207-1.975,2.088
		c-0.027-0.026-0.055-0.052-0.084-0.078c-4.066-3.744-5.603-4.282-6.487-4.331l-0.125-0.003c-1.314,0-2.691,0.692-4.211,2.114
		c-4.209,3.918-7.988,8.792-11.232,14.484c-3.26,5.721-5.182,10.829-5.711,15.18c-0.061,0.425-0.093,0.833-0.093,1.193
		c0,1.918,0.933,3.504,2.7,4.59c1.26,0.981,2.162,1.42,2.923,1.42c0.853,0,1.905-0.451,3.308-1.42
		c1.75-1.237,4.464-3.96,8.306-8.329c2.45-2.794,4.626-5.47,6.507-8.007c-0.956,3.537-1.803,7.527-2.532,11.931
		c-0.176,1.156-0.159,1.899,0.054,2.409c0.205,0.56,0.733,1.101,1.702,1.747c1.948,1.356,2.738,1.54,3.252,1.54
		c1.033,0,1.745-0.836,2.116-2.484c0.859-3.935,2.618-7.886,5.231-11.75c0.346-0.518,0.512-0.991,0.512-1.451
		c0-0.971-0.652-1.623-1.623-1.623c-0.518,0-1.28,0.189-2.003,1.078c-0.101,0.094-0.25,0.246-0.503,0.53
		c1.055-4.187,2.592-9.084,4.588-14.615c0.387-1.055,0.521-1.766,0.432-2.299C199.954,41.399,199.476,40.751,198.59,40.095z
		 M191.387,44.544c-1.022,2.404-3.411,6.065-7.099,10.879c-3.621,4.667-7.063,8.597-10.226,11.676
		c-1.38,1.379-2.238,1.691-2.679,1.737c-0.002-0.026-0.003-0.056-0.003-0.09c0-0.125,0.011-0.267,0.033-0.421
		c0.744-4.406,2.994-9.487,6.685-15.079c3.19-4.869,6.119-8.3,8.706-10.199c0.472-0.352,1.01-0.52,1.65-0.52
		c0.662,0,1.433,0.184,2.292,0.547c0.317,0.136,0.663,0.206,1.026,0.206c0.048,0,0.095-0.001,0.141-0.003
		C191.756,43.664,191.58,44.087,191.387,44.544z"/>
	<path fill="#713374" d="M235.073,55.039c-0.371,0-0.925,0.138-1.452,0.797c-0.057,0.075-0.114,0.15-0.171,0.224
		c0.279-1.167,0.567-2.448,0.86-3.839c0.997-4.549,1.483-7.782,1.483-9.877c0.024-1.599-0.662-3.766-4.036-5
		c-0.981-0.727-1.686-1.053-2.275-1.053c-0.533,0-1.241,0.212-2.295,0.689c-1.945,0.91-4.731,3.651-8.53,8.385
		c-1.468,1.829-2.803,3.598-4.001,5.301c1.274-4.117,2.003-7.174,2.212-9.257c0.13-1.297-0.401-3.037-3.576-4.096
		c-0.664-1.107-1.494-1.667-2.471-1.667c-0.749,0-1.445,0.357-2.067,1.062c-1.999,2.342-3.632,4.32-4.862,5.892
		c-0.446,0.461-0.672,0.939-0.672,1.42c0,0.722,0.489,1.451,1.58,1.451c0.565,0,1.094-0.226,1.531-0.653
		c1.127-1.01,2.067-1.879,2.801-2.592c-0.316,3.23-1.278,7.644-2.864,13.132c-1.612,5.513-3.259,10.127-4.895,13.711
		c-0.48,1.046-0.561,1.342-0.561,1.61c0,0.04,0.002,0.08,0.007,0.119c0.097,0.79,0.838,1.219,1.473,1.504
		c1.606,0.788,2.74,1.161,3.54,1.161c1.303,0,2.385-0.932,3.214-2.769c5.2-11.645,11.437-21.063,18.539-27.996
		c0.359-0.345,0.612-0.542,0.781-0.655c0.038,0.168,0.077,0.427,0.095,0.817c0.222,3.027-0.448,7.49-1.989,13.292
		c-1.44,5.562-3.095,10.259-4.92,13.966c-0.545,1.004-0.66,1.436-0.66,1.765c0,1.205,1.304,1.879,2.284,2.281
		c1.123,0.481,1.994,0.718,2.65,0.718c0.739,0,1.769-0.331,2.483-1.908c0.009-0.019,0.016-0.038,0.024-0.057
		c0.476-1.259,0.972-2.536,1.475-3.795c2.714-4.888,4.947-8.668,6.639-11.234c0.047-0.071,0.084-0.148,0.111-0.229
		c0.09-0.271,0.136-0.549,0.136-0.825C236.697,55.51,235.822,55.039,235.073,55.039z"/>
	<path fill="#713374" d="M268.559,45.462c0.065-1.77-0.413-3.416-1.419-4.877c-1.573-2.392-3.064-3.563-4.547-3.563
		c-0.599,0-1.403,0.171-2.459,0.523c-0.022,0.007-0.044,0.016-0.066,0.025c-1.386,0.576-2.439,1.023-3.143,1.337
		c-2.169-1.928-3.737-2.831-4.909-2.831c-1.034,0-2.141,0.706-3.484,2.221c-2.419,2.685-4.769,7.103-6.98,13.126
		c-2.033,5.599-3.079,9.86-3.198,13.028c-0.127,2.895,0.849,5.309,2.901,7.169c1.833,1.646,4.21,2.581,7.072,2.782
		c1.401,0.382,2.539,0.568,3.475,0.568c2.481,0,4.747-1.089,6.738-3.237c3.501-3.765,6.239-9.109,8.136-15.881
		C267.866,51.579,268.5,48.084,268.559,45.462z M248.457,70.524c-0.718,0-2.902,0-2.902-5.476c0-1.252,0.153-2.664,0.455-4.197
		c0.421-2.326,1.186-4.99,2.279-7.932c1.169-3.134,2.425-5.666,3.74-7.549c0.19,0.115,0.414,0.188,0.675,0.188
		c0.221,0,0.459-0.038,1.703-0.545l6.598-2.682c0.433-0.104,0.682-0.127,0.816-0.127c0.006,0,0.01-0.001,0.012-0.002
		c0.036,0.065,0.127,0.287,0.127,0.829c0,0.327-0.051,1.209-0.296,3.553c-0.446,4.409-1.665,8.926-3.622,13.428
		c-2.011,4.71-4.164,7.865-6.403,9.384c-1.09,0.718-2.104,1.098-3.002,1.122C248.565,70.522,248.511,70.524,248.457,70.524z"/>
	<path fill="#713374" d="M289.682,35.389c-0.431,0-1.106,0.141-3.103,1.157c-0.313,0.122-0.784,0.376-1.132,0.875
		c-0.308-0.387-0.775-0.568-1.24-0.568c0,0,0,0,0,0c-0.17,0-0.354,0.022-0.546,0.066c-6.834,1.502-10.434,4.319-10.693,8.374
		c-0.127,1.645,0.711,4.7,2.562,9.327c1.751,4.42,2.64,7.51,2.64,9.182c0,0.833-0.149,1.53-0.442,2.071
		c-0.009,0.017-0.018,0.034-0.026,0.051c-0.495,1.058-1.306,1.709-2.478,1.989c-3.923,0.564-6.922,0.921-8.916,1.061
		c-2.503,0.24-3.178,1.334-3.307,2.209c-0.017,0.112-0.014,0.225,0.009,0.336c0.225,1.12,0.951,1.837,2.046,2.02
		c2.48,0.375,4.557,0.69,6.248,0.948c0.722,0.109,1.424,0.165,2.087,0.165c0.27,0,0.534-0.009,0.794-0.027
		c1.546-0.137,2.738-0.642,3.563-1.503c0.469-0.5,0.927-1.281,1.403-2.387c5.033-1.797,6.03-5.247,5.965-7.86
		c-0.03-1.768-0.581-4.241-1.684-7.552c-1.418-4.365-2.279-7.155-2.558-8.288c-0.267-1.08-0.402-1.977-0.402-2.669
		c0-1.543,1.365-2.919,4.056-4.091c0.212-0.093,0.39-0.197,0.539-0.308c0.041,0.785-0.094,2.306-0.806,5.243
		c-0.136,0.61-0.2,1.087-0.2,1.478c0,1.357,0.875,1.838,1.624,1.838c0.295,0,0.781-0.081,2.325-0.665
		c1.186-0.408,1.574-0.635,1.806-0.867c0.436-0.394,0.8-1.146,1.115-2.335c0.718-2.961,1.065-5.062,1.065-6.442
		C291.995,35.593,290.225,35.389,289.682,35.389z"/>
	<path fill="#713374" d="M346.055,51.986c-0.372,0-1.603,0.129-1.829,1.792c-0.122,1.019-0.461,1.81-1.039,2.435
		c-2.231,2.369-5.07,4.739-8.434,7.037c-3.515,2.399-6.639,4.035-9.286,4.862c-1.015,0.312-1.917,0.471-2.676,0.471
		c-1.266,0-2.37-0.405-3.373-1.237c-1.385-1.161-2.072-2.917-2.098-5.363c-0.111-4.558,1.254-10.357,4.056-17.251
		c2.707-6.654,5.948-12.481,9.634-17.319c3.831-4.964,7.113-7.484,9.752-7.484c1.09,0,2.254,0.519,3.498,1.542
		c-0.478,4.769-1.848,8.933-4.077,12.389c-1.124,0.434-1.256,1.336-1.256,1.732c0,2.102,2.983,3.005,3.963,3.301
		c0.548,0.172,1.024,0.257,1.445,0.257c1.189,0,2.267-0.863,3.297-2.638c1.842-3.099,3.485-7.543,4.878-13.2
		c0.342-1.429,0.5-2.362,0.5-2.943c0-1.059-0.648-2.101-1.926-3.094c-1.881-1.452-3.139-2.098-4.083-2.098
		c-0.472,0-1.186,0.163-1.671,1.021c-2.696-2.195-2.856-2.301-2.947-2.362c-1.37-0.954-2.607-1.422-3.765-1.422
		c-0.116,0-0.232,0.005-0.345,0.015c-3.033,0.221-6.767,2.889-11.401,8.154c-4.631,5.296-8.574,11.511-11.723,18.475
		c-3.681,8.059-5.549,15.719-5.549,22.763c0,4.663,2.951,8.165,8.771,10.41c1.413,1.674,3.419,2.522,5.967,2.522
		c1.194,0,2.52-0.184,3.94-0.546c4.463-1.145,9.845-4.065,15.997-8.679c1.982-1.509,3.211-2.508,3.761-3.058
		c0.968-1.039,1.447-2.16,1.447-3.358c0-1.139-0.529-3.017-1.618-5.738C347.396,52.168,346.53,51.986,346.055,51.986z"/>
	<path fill="#713374" d="M381.045,45.462c0.064-1.77-0.413-3.415-1.418-4.877c-1.573-2.392-3.064-3.563-4.548-3.563
		c-0.599,0-1.403,0.171-2.459,0.523c-0.022,0.007-0.044,0.016-0.066,0.025c-1.387,0.576-2.44,1.024-3.143,1.337
		c-2.169-1.929-3.737-2.831-4.909-2.831c-1.034,0-2.141,0.706-3.484,2.221c-2.418,2.684-4.769,7.102-6.98,13.126
		c-2.005,5.521-3.08,9.903-3.197,13.029c-0.127,2.895,0.849,5.309,2.901,7.169c1.833,1.646,4.21,2.581,7.071,2.782
		c1.401,0.382,2.539,0.568,3.476,0.568c2.481,0,4.747-1.089,6.738-3.237c3.5-3.765,6.238-9.108,8.136-15.881
		C380.353,51.58,380.986,48.085,381.045,45.462z M360.943,70.524c-0.718,0-2.901,0-2.901-5.476c0-1.253,0.153-2.665,0.454-4.197
		c0.421-2.326,1.186-4.99,2.279-7.932c1.169-3.134,2.424-5.666,3.74-7.549c0.19,0.115,0.414,0.188,0.675,0.188
		c0.221,0,0.46-0.038,1.704-0.545l6.596-2.682c0.434-0.104,0.682-0.127,0.816-0.127c0.006,0,0.01-0.001,0.012-0.002
		c0.036,0.065,0.127,0.287,0.127,0.829c0,0.328-0.051,1.211-0.295,3.554c-0.446,4.407-1.665,8.924-3.622,13.428
		c-2.01,4.709-4.164,7.864-6.404,9.384c-1.09,0.718-2.103,1.098-3.002,1.122C361.051,70.522,360.997,70.524,360.943,70.524z"/>
	<path fill="#713374" d="M408.135,39.678c0-0.789-0.515-1.709-1.966-1.709c-1.074,0-3.591-0.297-7.491-0.884
		c7.35-20.294,11.034-25.959,12.835-27.112c0.579-0.356,1.241-0.534,2.009-0.534c1.09,0,2.394,0.408,3.877,1.214
		c0.448,0.226,0.9,0.334,1.369,0.334c1.516,0,2.054-0.99,2.054-1.838c0-0.48-0.181-1.186-1.045-1.821
		c-4.605-3.341-7.872-4.963-9.995-4.963c-2.389,0-4.71,2.136-7.096,6.532c-2.649,4.896-6.331,14.146-10.943,27.495
		c-0.017,0.052-0.175,0.428-1.423,0.789c-1.309,0.285-2.636,0.588-3.944,0.901c-1.415,0.354-2.127,1.006-2.127,1.941
		c0,0.218,0.023,0.379,0.547,1.66c0.006,0.016,0.013,0.031,0.02,0.046c0.259,0.551,0.815,1.244,1.993,1.412
		c0.026,0.004,0.051,0.006,0.077,0.008c0.092,0.006,0.214,0.009,0.366,0.009c0.478,0,1.259-0.031,2.371-0.094
		c-5.802,18.274-9.933,33.821-12.279,46.226c-0.232,1.363,0.098,3.316,2.963,4.984c2.306,1.4,3.068,1.595,3.544,1.595
		c0.723,0,1.452-0.515,1.452-1.666c0-0.363-0.046-0.852-0.14-1.496c-0.097-0.666-0.118-1.004-0.118-1.17
		c0-3.357,0.889-9.088,2.643-17.032c2.151-9.722,5.165-20.367,8.961-31.648c3.273-0.191,6.533-0.588,9.7-1.184
		C407.478,41.427,408.135,40.684,408.135,39.678z"/>
	<path fill="#713374" d="M431.14,51.359c1.029-3.497,1.549-7.207,1.549-11.036c0-1.363-0.386-2.327-1.146-2.863
		c-0.435-0.316-1.181-0.531-2.461-0.698c-0.988-0.73-1.784-1.072-2.489-1.072c-0.932,0-1.876,0.704-3.061,2.283
		c-2.972,3.985-5.775,8.369-8.384,13.109c0.081-0.24,0.162-0.482,0.245-0.727c2.235-6.448,3.104-8.117,3.423-8.538
		c0.476-0.612,0.654-1.232,0.522-1.834c-0.134-0.608-0.565-1.104-1.282-1.475c-2.288-1.164-3.12-1.313-3.589-1.313
		c-1.099,0-2.074,0.77-2.981,2.353c-2.311,3.409-4.179,5.977-5.554,7.633c-0.013,0.016-0.026,0.032-0.038,0.048
		c-0.353,0.484-0.532,0.967-0.532,1.436c0,0.971,0.687,1.623,1.708,1.623c0.726,0,1.351-0.338,1.76-0.952
		c0.15-0.218,0.363-0.493,0.638-0.826c-1.997,5.909-3.9,12.805-5.674,20.576c-0.558,2.486,0.704,3.53,1.506,3.931
		c3.215,1.608,3.544,1.608,3.834,1.608c1.247,0,2.153-1.434,3.343-5.291c2.905-9.504,7.351-18.196,13.215-25.836
		c0.074-0.098,0.143-0.188,0.208-0.271c-0.134,1.332-0.504,2.985-1.104,4.935c-0.622,1.918,0.249,3.011,0.825,3.49
		c1.939,1.616,2.718,1.947,3.292,1.947C429.937,53.599,430.686,52.846,431.14,51.359z"/>
	<path fill="#713374" d="M460.992,57.361c-0.518,0-1.28,0.189-2.003,1.078c-0.101,0.094-0.25,0.246-0.503,0.53
		c1.055-4.187,2.592-9.084,4.589-14.616c0.387-1.054,0.52-1.765,0.431-2.299c-0.093-0.655-0.571-1.303-1.457-1.959
		c-2.176-1.622-3.01-1.955-3.592-1.955c-1.117,0-1.68,1.208-1.975,2.089c-0.027-0.026-0.055-0.052-0.084-0.078
		c-4.065-3.744-5.602-4.282-6.486-4.331l-0.125-0.003c-1.314,0-2.691,0.692-4.211,2.114c-4.209,3.919-7.989,8.792-11.233,14.484
		c-3.26,5.721-5.182,10.829-5.711,15.18c-0.061,0.425-0.093,0.833-0.093,1.193c0,1.917,0.933,3.503,2.701,4.59
		c1.259,0.981,2.162,1.42,2.922,1.42c0.853,0,1.905-0.451,3.308-1.42c1.749-1.237,4.464-3.959,8.307-8.329
		c2.45-2.793,4.625-5.469,6.507-8.007c-0.956,3.536-1.803,7.526-2.531,11.931c-0.176,1.155-0.16,1.899,0.054,2.409
		c0.205,0.56,0.732,1.101,1.701,1.747c1.949,1.356,2.739,1.54,3.253,1.54c1.032,0,1.744-0.836,2.115-2.484
		c0.859-3.934,2.619-7.885,5.232-11.75c0.346-0.518,0.512-0.991,0.512-1.451C462.617,58.014,461.964,57.361,460.992,57.361z
		 M454.845,44.544c-1.022,2.404-3.411,6.065-7.099,10.879c-3.621,4.667-7.062,8.597-10.226,11.676
		c-1.379,1.379-2.237,1.691-2.678,1.737c-0.002-0.026-0.003-0.056-0.003-0.09c0-0.13,0.011-0.271,0.032-0.421
		c0.744-4.404,2.994-9.486,6.686-15.079c3.19-4.869,6.119-8.3,8.706-10.199c0.472-0.352,1.01-0.52,1.65-0.52
		c0.662,0,1.433,0.184,2.293,0.547c0.315,0.136,0.662,0.206,1.025,0.206c0.048,0,0.095-0.001,0.141-0.003
		C455.213,43.664,455.038,44.087,454.845,44.544z"/>
	<path fill="#713374" d="M496.682,57.404c-0.691,0-1.381,0.488-2.384,1.683c-0.249,0.3-0.488,0.584-0.716,0.852
		c3.603-19.683,9.16-35.747,16.534-47.786c2.428-3.949,4.089-4.779,5.056-4.779c0.285,0,0.999,0.116,2.58,0.889
		c0.413,0.207,0.836,0.315,1.248,0.315c1.484,0,2.01-0.967,2.01-1.795c0-0.439-0.157-1.08-0.907-1.643
		c-1.433-1.153-2.88-2.326-4.31-3.5C514.31,0.528,513.105,0,512.076,0c-1.004,0-2.014,0.483-3.001,1.435
		c-2.273,2.094-4.82,6.042-7.767,12.056c-3.635,7.413-6.977,16.443-9.935,26.845c-0.057-0.062-0.119-0.123-0.187-0.184
		c-4.026-3.744-5.631-4.283-6.578-4.331l-0.12-0.002c-1.314,0-2.691,0.692-4.211,2.114c-4.206,3.887-7.993,8.747-11.252,14.44
		c-3.271,5.713-5.243,10.829-5.86,15.205c-0.061,0.333-0.096,0.681-0.096,0.997c0,1.862,1.081,3.477,3.212,4.803
		c1.262,0.983,2.165,1.421,2.926,1.421c0.82,0,1.868-0.449,3.299-1.414c1.687-1.114,4.275-3.667,7.906-7.798
		c2.416-2.747,4.684-5.528,6.777-8.304c-0.591,2.783-1.26,6.182-2.002,10.168c-0.152,0.693-0.232,1.342-0.232,1.899
		c0,1.192,0.392,2.168,1.165,2.902c0.095,0.095,0.305,0.306,2.532,1.82c0.539,0.373,1.03,0.556,1.496,0.556
		c0.986,0,1.733-0.763,2.221-2.268c0.012-0.036,0.021-0.072,0.028-0.109c0.856-4.255,2.638-8.279,5.296-11.961
		c0.25-0.353,0.902-1.272,0.461-2.125C497.973,57.817,497.573,57.404,496.682,57.404z M488.987,43.071
		c0.38,0.144,0.713,0.208,1.031,0.208c0.145,0,0.28-0.01,0.406-0.028c-0.163,0.422-0.339,0.849-0.528,1.28
		c-1.028,2.416-3.416,6.077-7.104,10.891c-3.624,4.67-7.052,8.601-10.187,11.679c-1.435,1.405-2.288,1.701-2.707,1.737
		c-0.011-0.098-0.014-0.264,0.02-0.523c0.635-4.413,2.812-9.488,6.47-15.072c3.162-4.842,6.078-8.273,8.666-10.2
		c0.475-0.345,1.023-0.517,1.666-0.517C487.38,42.526,488.143,42.71,488.987,43.071z"/>
	<path fill="#713374" d="M525.654,59.415c0-1.065-0.705-1.752-1.796-1.752c-0.64,0-1.249,0.285-1.81,0.846
		c-5.805,5.861-10.354,9.399-13.522,10.519c-0.525,0.165-0.841,0.202-1.008,0.202c-0.362,0-0.431-0.799-0.44-1.276
		c-0.056-2.426,0.311-5.262,1.09-8.434c0.523-2.242,0.936-3.547,1.24-4.307c2.414,0.535,4.15,0.795,5.292,0.795
		c2.435,0,4.654-0.714,6.594-2.121c2.207-1.591,3.328-4.361,3.328-8.231c0-0.519-0.015-1.542-0.044-3.071
		c-0.028-1.472-0.042-2.754-0.042-3.809c0-0.276,0.036-0.583,0.106-0.913c0.127-0.595,0.152-1.189,0.152-1.337
		c0-1.077-0.952-2.025-2.828-2.025h-2.02c-0.073,0-0.146,0.409-0.218,0.426c-0.288,0.066-0.998,0.501-1.341,1.252
		c-1.758-0.709-2.401-0.717-2.785-0.717c-1.382,0-2.797,0.955-4.324,2.816c-2.002,2.367-4.179,6.19-6.636,11.611
		c-0.305-0.079-0.608-0.106-0.907-0.106c-1.388,0-1.881,0.858-1.881,1.587c0,0.887,0.672,1.538,1.391,2.004
		c-1.451,4.502-2.436,8.688-2.931,12.45c-0.061,0.355-0.094,0.743-0.094,1.117c0,2.06,1.229,3.696,3.655,4.865
		c2.223,1.985,4.078,2.951,5.666,2.951c2.032,0,5.848-1.425,15.477-13.749C525.433,60.505,525.654,59.962,525.654,59.415z
		 M517.722,41.171c0.204-0.155,0.363-0.259,0.483-0.33c0.017,0.132,0.03,0.313,0.03,0.557c0,1.948,0.007,3.409,0.02,4.383
		c0.008,0.633,0.015,1.129,0.071,1.503c-0.13,1.403-0.497,2.414-1.094,3.011c-0.872,0.871-2.228,1.313-4.033,1.313
		c-0.144,0-0.292-0.003-0.441-0.008c-0.646-0.039-1.206-0.078-1.674-0.117C513.029,46.621,515.259,43.155,517.722,41.171z"/>
	<path fill="#713374" d="M546.691,35.389c-0.431,0-1.106,0.141-3.105,1.157c-0.313,0.122-0.784,0.376-1.132,0.875
		c-0.308-0.387-0.775-0.568-1.24-0.568c0,0,0,0,0,0c-0.17,0-0.354,0.022-0.546,0.066c-6.833,1.501-10.432,4.319-10.692,8.374
		c-0.127,1.647,0.711,4.702,2.562,9.327c1.75,4.417,2.638,7.507,2.638,9.182c0,0.835-0.148,1.532-0.44,2.071
		c-0.009,0.017-0.018,0.034-0.026,0.051c-0.495,1.058-1.306,1.709-2.478,1.989c-3.922,0.564-6.922,0.921-8.917,1.061
		c-2.503,0.24-3.177,1.334-3.307,2.209c-0.016,0.111-0.014,0.225,0.008,0.335c0.224,1.12,0.95,1.838,2.045,2.02
		c2.48,0.375,4.557,0.69,6.249,0.948c0.722,0.109,1.424,0.165,2.086,0.165c0.27,0,0.534-0.009,0.794-0.027
		c1.545-0.137,2.737-0.642,3.563-1.503c0.467-0.498,0.926-1.28,1.403-2.387c5.032-1.796,6.029-5.246,5.963-7.861
		c-0.031-1.772-0.581-4.244-1.684-7.552c-1.417-4.365-2.279-7.156-2.558-8.289c-0.266-1.079-0.401-1.976-0.401-2.668
		c0-1.543,1.365-2.919,4.056-4.091c0.213-0.093,0.391-0.197,0.54-0.308c0.041,0.786-0.094,2.308-0.805,5.243
		c-0.136,0.61-0.2,1.087-0.2,1.478c0,1.357,0.874,1.838,1.622,1.838c0.295,0,0.781-0.081,2.325-0.665
		c1.156-0.398,1.555-0.624,1.789-0.85c0.461-0.428,0.821-1.176,1.132-2.351c0.718-2.961,1.065-5.062,1.065-6.442
		C549.002,35.593,547.233,35.389,546.691,35.389z"/>
</g>
</svg>
