<?xml version="1.0" encoding="utf-8"?>
<!-- Generator: Adobe Illustrator 17.0.0, SVG Export Plug-In . SVG Version: 6.00 Build 0)  -->
<!DOCTYPE svg PUBLIC "-//W3C//DTD SVG 1.1//EN" "http://www.w3.org/Graphics/SVG/1.1/DTD/svg11.dtd">
<svg version="1.1" id="Capa_1" xmlns="http://www.w3.org/2000/svg" xmlns:xlink="http://www.w3.org/1999/xlink" x="0px" y="0px"
	 width="300px" height="132px" viewBox="0 0 300 132" enable-background="new 0 0 300 132" xml:space="preserve">
<g>
	<g>
		<path fill="#FFFFFF" d="M83.745,69.845H10.219c-3.189,0-5.7,0.981-7.464,2.918C0.927,74.633,0,77.045,0,79.934v41.978
			c0,2.877,0.941,5.304,2.797,7.213c0.026,0.027,0.052,0.053,0.079,0.079c1.91,1.856,4.381,2.797,7.344,2.797h73.526
			c6.303,0,10.219-3.866,10.219-10.088V79.934C93.964,73.71,90.048,69.845,83.745,69.845L83.745,69.845z"/>
		<g>
			<path fill="#1A1F71" d="M90.068,79.934c0-4.139-2.151-6.193-6.323-6.193H10.219c-2.086,0-3.618,0.554-4.628,1.695
				c-1.14,1.141-1.694,2.607-1.694,4.498v41.978c0,1.889,0.554,3.324,1.694,4.497c1.174,1.141,2.673,1.695,4.628,1.695h73.526
				c4.172,0,6.323-2.086,6.323-6.192V79.934L90.068,79.934z"/>
			<path fill="#FFFFFF" d="M83.81,74.719c3.455,0,5.215,1.761,5.215,5.215v41.978c0,3.487-1.76,5.214-5.215,5.214H10.285
				c-1.662,0-2.934-0.488-3.879-1.466c-0.977-0.945-1.467-2.249-1.467-3.748V79.934c0-3.454,1.728-5.215,5.345-5.215L83.81,74.719
				L83.81,74.719z"/>
			<path fill="#1A1F71" d="M82.39,112.362v-0.149l-4.806-22.695c-1.462-0.106-3.383-0.03-4.885-0.015
				c-1.681,0.017-2.29,0.811-2.827,2.062c-0.538,1.256-8.612,20.413-8.665,20.81h6.185l1.25-3.411l7.504,0.003
				c0.208,0.552,0.323,1.409,0.45,2.002c0.348,1.628,0.123,1.424,0.945,1.411C79.145,112.352,80.795,112.427,82.39,112.362
				L82.39,112.362z M9.287,89.866v0.337c1.679,0.274,5.137,1.383,6.272,2.217c0.821,0.604,0.945,1.726,1.256,2.939l3.514,13.586
				c0.273,1.084,0.539,2.378,0.889,3.403l6.242,0.027c0.515-0.994,4.297-10.212,4.807-11.445l3.581-8.57
				c0.251-0.615,1.076-2.318,1.164-2.843l-6.16-0.013l-6.12,15.41c-0.299-0.474-2.172-11.266-2.486-12.877
				c-0.536-2.752-2.317-2.536-5.101-2.534c-2.503,0.002-5.197-0.096-7.675,0.012L9.287,89.866L9.287,89.866z M45.748,106.529
				c1.924,0.563,2.113,1.264,5.483,1.413c1.783,0.078,4.611-0.615,3.993-2.732c-0.35-1.202-2.68-2.146-3.946-2.818
				c-3.514-1.866-5.375-4.963-3.481-8.777c1.568-3.159,5.579-4.503,9.007-4.516c2.571-0.01,3.628,0.414,5.799,0.974l-1.025,4.884
				c-0.918-0.269-1.573-0.618-2.654-0.844c-4.775-0.997-7.125,1.411-4.755,3.192c2.232,1.677,6.448,2.61,7.219,6.387
				c0.426,2.086-0.3,4.199-1.246,5.466c-3.22,4.315-11.113,4.23-15.476,2.391C44.666,110.984,45.535,106.906,45.748,106.529
				L45.748,106.529z M34.673,112.364l4.914-22.858l5.895,0.007l-4.897,22.858L34.673,112.364L34.673,112.364z M70.359,104.245
				c0.133-0.48,2.852-8.081,3.083-8.403l1.731,8.423L70.359,104.245z"/>
		</g>
	</g>
	<g>
		<g>
			<path fill="#FFFFFF" d="M261.094,13.865c-0.876-1.026-2.164-1.614-3.534-1.614h-5.891c-2.385,0-4.461,1.765-4.829,4.106
				l-1.242,7.862c-0.651-0.314-1.386-0.48-2.168-0.48h-5.611c-0.703,0-1.449,0.15-2.139,0.494c-1.485-0.778-3.46-1.314-6.082-1.314
				l0,0c-0.135,0-0.27,0.001-0.407,0.004c-2.929,0.06-5.637,0.77-8.007,2.012c0.066-4.305-1.567-7.069-3.028-8.672
				c-2.398-2.632-6.048-4.082-10.277-4.082h-13.754c-1.134,0-4.894,0.386-5.671,5.347l-0.969,6.212
				c-0.277-0.045-0.559-0.075-0.85-0.075l-5.499-0.006c-0.001,0-0.003,0-0.004,0h-0.006c-3.106,0-4.48,1.992-5.067,2.842
				l-3.671,5.326l-1.308-4.275c-0.742-2.427-2.791-3.876-5.482-3.876h-5.157c-1.097,0-2.116,0.302-2.958,0.856
				c-0.773-0.517-1.705-0.793-2.716-0.793h-5.612c-0.703,0-1.448,0.15-2.139,0.494c-1.485-0.778-3.46-1.314-6.082-1.314l0,0
				c-0.135,0-0.27,0.001-0.407,0.004c-2.929,0.06-5.636,0.77-8.006,2.012c0.066-4.305-1.567-7.068-3.028-8.671
				c-2.398-2.632-6.048-4.082-10.277-4.082h-13.753c-1.134,0-4.895,0.386-5.671,5.348l-4.751,30.44
				c-0.302,1.937,0.063,3.524,1.085,4.718c0.923,1.079,2.272,1.673,3.796,1.673h5.746c2.814,0,5.019-2.012,5.487-5.007l1.021-6.51
				h4.04c2.477-0.007,4.728-0.46,6.712-1.321c0.012,3.559,1.277,6.854,3.623,9.38c2.51,2.703,5.958,4.191,9.71,4.191
				c2.912,0,5.054-0.522,6.879-1.449c0.777,0.512,1.711,0.785,2.722,0.785h5.104c1.367,0,4.624-0.483,5.337-4.96l1.822-11.437
				l3.248,9.51l-5.183,7.326c-1.087,1.538-1.255,3.473-0.437,5.052c0.806,1.558,2.432,2.525,4.243,2.525h5.819
				c2.134,0,3.746-0.824,4.926-2.518l14.298-20.511l-1.334,8.553c-0.302,1.936,0.063,3.524,1.086,4.718
				c0.924,1.079,2.272,1.673,3.796,1.673h5.746c2.814,0,5.019-2.012,5.487-5.007l1.021-6.511h4.04
				c2.478-0.007,4.728-0.46,6.712-1.321c0.012,3.559,1.276,6.854,3.622,9.38c2.51,2.703,5.958,4.191,9.71,4.191
				c2.912,0,5.054-0.522,6.879-1.449c0.777,0.512,1.711,0.785,2.721,0.785h5.104c0.798,0,2.238-0.164,3.442-1.19
				c0.849,0.784,1.973,1.225,3.159,1.225h5.891c2.384,0,4.46-1.765,4.829-4.105l5.181-32.791
				C262.342,16.235,261.964,14.884,261.094,13.865z M114.458,28.476h-0.048l0.291-1.858l0.995-0.005
				C115.55,28.348,114.918,28.455,114.458,28.476z M143.108,38.508c-0.21,1.41-1.733,2.695-3.195,2.695
				c-0.501,0-0.912-0.156-1.156-0.439c-0.292-0.338-0.296-0.79-0.249-1.11c0.21-1.41,1.733-2.694,3.195-2.694
				c0.501,0,0.912,0.156,1.156,0.439C143.15,37.738,143.155,38.189,143.108,38.508z M203.121,28.476h-0.048l0.291-1.858l0.995-0.005
				C204.214,28.347,203.581,28.454,203.121,28.476z M231.771,38.508c-0.21,1.41-1.733,2.695-3.195,2.695
				c-0.501,0-0.912-0.156-1.156-0.439c-0.292-0.339-0.297-0.791-0.249-1.11c0.21-1.409,1.733-2.694,3.196-2.694
				c0.501,0,0.912,0.156,1.156,0.439C231.814,37.738,231.819,38.189,231.771,38.508z"/>
			<g>
				<g>
					<path fill="#113984" d="M119.216,16.077c5.206,0,10.008,2.823,9.35,9.861c-0.779,8.343-5.276,12.991-12.348,13.009h-6.17
						c-0.889,0-1.317,0.722-1.55,2.211l-1.191,7.594c-0.179,1.147-0.767,1.713-1.638,1.713h-5.746c-0.916,0-1.236-0.586-1.032-1.895
						l4.749-30.44c0.234-1.497,0.806-2.054,1.821-2.054L119.216,16.077L119.216,16.077z M109.857,32.371l4.68,0.001
						c2.926-0.11,4.871-2.137,5.067-5.793c0.121-2.258-1.404-3.873-3.831-3.862l-4.406,0.02L109.857,32.371L109.857,32.371z
						 M144.186,48.132c0.525-0.476,1.06-0.726,0.982-0.136l-0.186,1.411c-0.098,0.735,0.195,1.128,0.882,1.128h5.104
						c0.858,0,1.278-0.348,1.49-1.677l3.145-19.743c0.158-0.992-0.082-1.479-0.835-1.479h-5.612c-0.506,0-0.751,0.285-0.884,1.058
						l-0.208,1.215c-0.109,0.634-0.399,0.744-0.668,0.106c-0.953-2.255-3.382-3.266-6.788-3.196
						c-7.874,0.162-13.182,6.139-13.75,13.8c-0.439,5.927,3.809,10.58,9.405,10.58C140.324,51.198,142.14,49.987,144.186,48.132
						L144.186,48.132z M139.914,45.099c-3.389,0-5.751-2.703-5.258-6.017c0.493-3.314,3.66-6.017,7.048-6.017
						c3.389,0,5.751,2.703,5.258,6.017S143.303,45.099,139.914,45.099L139.914,45.099z M165.599,27.572h-5.157
						c-1.068,0-1.503,0.782-1.163,1.777l6.426,18.82l-6.332,8.951c-0.529,0.748-0.121,1.431,0.625,1.431h5.819
						c0.869,0,1.292-0.222,1.729-0.849l19.765-28.353c0.609-0.874,0.322-1.788-0.676-1.788l-5.501-0.006
						c-0.945-0.002-1.323,0.373-1.865,1.158l-8.244,11.96l-3.668-11.981C167.13,27.954,166.591,27.572,165.599,27.572z"/>
				</g>
				<g>
					<path fill="#009DE2" d="M207.88,16.077c5.206,0,10.008,2.823,9.351,9.861c-0.779,8.343-5.276,12.991-12.348,13.009h-6.169
						c-0.89,0-1.318,0.722-1.551,2.211l-1.191,7.594c-0.179,1.147-0.767,1.713-1.638,1.713h-5.746c-0.916,0-1.236-0.586-1.032-1.895
						l4.749-30.44c0.234-1.497,0.806-2.054,1.821-2.054L207.88,16.077L207.88,16.077z M198.521,32.371l4.68,0.001
						c2.926-0.11,4.872-2.137,5.067-5.793c0.121-2.258-1.404-3.873-3.832-3.862l-4.405,0.02L198.521,32.371L198.521,32.371z
						 M232.849,48.132c0.524-0.476,1.06-0.726,0.982-0.136l-0.187,1.411c-0.097,0.735,0.196,1.128,0.882,1.128h5.104
						c0.859,0,1.279-0.348,1.491-1.677l3.145-19.743c0.158-0.992-0.082-1.479-0.836-1.479h-5.611c-0.507,0-0.752,0.285-0.884,1.058
						l-0.209,1.215c-0.109,0.634-0.399,0.744-0.668,0.106c-0.953-2.255-3.382-3.266-6.788-3.196
						c-7.873,0.162-13.181,6.139-13.749,13.8c-0.439,5.927,3.809,10.58,9.404,10.58C228.988,51.198,230.804,49.987,232.849,48.132
						L232.849,48.132z M228.578,45.099c-3.389,0-5.751-2.703-5.259-6.017c0.494-3.314,3.66-6.017,7.049-6.017
						s5.751,2.703,5.258,6.017C235.133,42.396,231.967,45.099,228.578,45.099L228.578,45.099z M252.123,50.569h-5.891
						c-0.468,0-0.793-0.367-0.722-0.815l5.18-32.793c0.071-0.449,0.512-0.815,0.98-0.815h5.891c0.468,0,0.793,0.366,0.722,0.815
						l-5.181,32.793C253.032,50.203,252.591,50.569,252.123,50.569z"/>
				</g>
			</g>
		</g>
		<g>
			<path fill="#FFFFFF" d="M67.204,0H51.761c-3.782,0-6.384,2.189-6.963,5.855l-6.85,43.371c-0.132,0.838-0.535,3.388,1.13,5.337
				c0.95,1.111,2.325,1.724,3.873,1.724h5.941c-0.122,1.047-0.165,2.965,1.168,4.525c0.923,1.08,2.254,1.674,3.748,1.674h9.673
				c0.117,0,0.233-0.005,0.35-0.016c2.417-0.218,4.229-2.005,4.614-4.554l1.681-11.093h2.526c10.613,0,18.065-7.611,18.984-19.389
				c0.388-4.972-1.138-8.956-4.34-11.496c0.31-4.591-1.385-8.982-4.557-11.779C78.024,0,71.251,0,67.204,0L67.204,0z"/>
			<g>
				<path fill="#009DE2" d="M61.403,16.768h15.428c8.282,0,11.401,4.193,10.919,10.363c-0.794,10.171-6.943,15.796-15.1,15.796
					h-4.118c-1.118,0-1.87,0.739-2.174,2.747l-1.767,11.66c-0.115,0.757-0.513,1.202-1.111,1.256h-9.673
					c-0.91,0-1.234-0.697-0.996-2.205l5.908-37.404C58.954,17.482,59.774,16.768,61.403,16.768z"/>
				<path fill="#113984" d="M51.758,3.896h15.443c4.35,0,9.508,0.141,12.959,3.185c2.305,2.033,3.515,5.273,3.236,8.75
					c-0.947,11.791-8,18.396-17.459,18.396H58.32c-1.296,0-2.156,0.859-2.521,3.185l-2.125,13.521
					c-0.138,0.877-0.518,1.393-1.212,1.456h-9.513c-1.055,0-1.431-0.807-1.155-2.556l6.85-43.372
					C48.918,4.724,49.869,3.896,51.758,3.896z"/>
				<path fill="#172C70" d="M56.02,36.05l2.697-17.069c0.237-1.499,1.057-2.213,2.686-2.213h15.428c2.554,0,4.617,0.399,6.234,1.134
					c-1.55,10.495-8.338,16.325-17.227,16.325h-7.617C57.219,34.227,56.47,34.74,56.02,36.05z"/>
			</g>
		</g>
	</g>
	<g>
		<path fill="#FFFFFF" d="M186.841,69.844h-73.526c-3.189,0-5.7,0.981-7.464,2.918c-1.828,1.871-2.755,4.283-2.755,7.171v41.978
			c0,2.877,0.941,5.304,2.797,7.213c0.026,0.027,0.052,0.053,0.079,0.079c1.91,1.856,4.381,2.797,7.344,2.797h73.526
			c6.303,0,10.219-3.866,10.219-10.088V79.933C197.06,73.709,193.144,69.844,186.841,69.844L186.841,69.844z"/>
		<g>
			<path fill-rule="evenodd" clip-rule="evenodd" d="M193.164,79.933c0-4.139-2.151-6.192-6.323-6.192h-73.525
				c-2.086,0-3.617,0.554-4.628,1.694c-1.14,1.141-1.694,2.608-1.694,4.498v41.978c0,1.889,0.554,3.324,1.694,4.497
				c1.174,1.141,2.673,1.695,4.628,1.695h73.525c4.172,0,6.323-2.086,6.323-6.192V79.933L193.164,79.933z"/>
			<path fill-rule="evenodd" clip-rule="evenodd" fill="#FFFFFF" d="M186.841,74.718c3.455,0,5.215,1.76,5.215,5.215v41.978
				c0,3.487-1.76,5.214-5.215,5.214h-73.525c-1.662,0-2.933-0.489-3.878-1.466c-0.978-0.946-1.467-2.249-1.467-3.748V79.933
				c0-3.454,1.728-5.215,5.345-5.215H186.841L186.841,74.718z"/>
			<g>
				<g>
					<path d="M132.422,118.092c-0.153-0.154-0.335-0.273-0.546-0.359c-0.211-0.085-0.442-0.128-0.692-0.128
						c-0.133,0-0.271,0.011-0.414,0.034c-0.143,0.023-0.283,0.063-0.42,0.121c-0.137,0.058-0.268,0.138-0.391,0.24
						c-0.124,0.102-0.232,0.231-0.323,0.386c-0.147-0.244-0.347-0.435-0.599-0.573c-0.252-0.139-0.54-0.208-0.865-0.208
						c-0.109,0-0.222,0.01-0.338,0.03c-0.117,0.02-0.232,0.054-0.347,0.103c-0.115,0.049-0.225,0.115-0.329,0.199
						c-0.105,0.084-0.2,0.19-0.285,0.318v-0.535h-0.92v4.378h0.929v-2.426c0-0.186,0.029-0.351,0.088-0.496
						c0.059-0.145,0.138-0.266,0.237-0.363c0.099-0.097,0.214-0.171,0.347-0.222c0.133-0.05,0.274-0.075,0.425-0.075
						c0.312,0,0.555,0.099,0.728,0.297c0.172,0.198,0.259,0.481,0.259,0.85v2.436h0.929v-2.426c0-0.186,0.029-0.351,0.088-0.496
						c0.059-0.145,0.138-0.266,0.237-0.363c0.099-0.097,0.214-0.171,0.347-0.222c0.133-0.05,0.274-0.075,0.425-0.075
						c0.312,0,0.555,0.099,0.728,0.297c0.172,0.198,0.259,0.481,0.259,0.85v2.436h0.929v-2.751c0-0.256-0.042-0.49-0.126-0.704
						C132.694,118.43,132.575,118.246,132.422,118.092z"/>
					<path d="M137.32,118.25c-0.152-0.195-0.341-0.351-0.567-0.468c-0.225-0.117-0.495-0.176-0.809-0.176
						c-0.308,0-0.594,0.057-0.859,0.171c-0.265,0.114-0.497,0.273-0.695,0.478c-0.198,0.204-0.353,0.447-0.466,0.729
						c-0.113,0.282-0.169,0.59-0.169,0.925c0,0.335,0.056,0.644,0.169,0.925c0.113,0.282,0.268,0.525,0.466,0.729
						c0.198,0.204,0.43,0.363,0.695,0.478c0.265,0.114,0.551,0.171,0.859,0.171c0.314,0,0.583-0.058,0.809-0.174
						c0.225-0.116,0.414-0.271,0.567-0.466v0.526h0.955v-4.378h-0.955V118.25z M137.283,120.466
						c-0.064,0.171-0.154,0.318-0.27,0.443c-0.116,0.125-0.254,0.223-0.416,0.295c-0.161,0.072-0.341,0.107-0.539,0.107
						c-0.207,0-0.392-0.037-0.555-0.112c-0.163-0.075-0.301-0.175-0.414-0.302c-0.113-0.126-0.2-0.275-0.26-0.446
						c-0.061-0.171-0.091-0.352-0.091-0.544c0-0.192,0.03-0.373,0.091-0.544c0.061-0.171,0.148-0.319,0.26-0.446
						c0.113-0.126,0.251-0.227,0.414-0.302c0.163-0.075,0.348-0.112,0.555-0.112c0.198,0,0.378,0.036,0.539,0.107
						c0.161,0.072,0.3,0.17,0.416,0.295c0.116,0.125,0.206,0.273,0.27,0.443c0.064,0.171,0.096,0.356,0.096,0.557
						S137.347,120.296,137.283,120.466z"/>
					<path d="M142.665,119.902c-0.268-0.209-0.641-0.348-1.12-0.418l-0.452-0.069c-0.101-0.015-0.195-0.033-0.283-0.053
						c-0.088-0.02-0.164-0.046-0.228-0.08c-0.064-0.033-0.115-0.076-0.153-0.128c-0.038-0.052-0.057-0.116-0.057-0.192
						c0-0.155,0.072-0.281,0.217-0.377c0.145-0.096,0.348-0.144,0.61-0.144c0.137,0,0.272,0.012,0.404,0.037
						c0.133,0.024,0.258,0.055,0.377,0.091c0.119,0.037,0.227,0.077,0.324,0.121c0.097,0.044,0.18,0.086,0.247,0.126l0.411-0.745
						c-0.229-0.146-0.495-0.26-0.8-0.34c-0.305-0.081-0.629-0.121-0.973-0.121c-0.28,0-0.532,0.033-0.754,0.098
						c-0.222,0.066-0.412,0.158-0.569,0.279c-0.157,0.12-0.277,0.267-0.361,0.441c-0.084,0.174-0.126,0.369-0.126,0.585
						c0,0.353,0.126,0.639,0.377,0.857c0.251,0.218,0.621,0.36,1.108,0.427l0.457,0.059c0.262,0.037,0.454,0.095,0.576,0.176
						c0.122,0.081,0.183,0.184,0.183,0.308c0,0.165-0.084,0.295-0.251,0.391c-0.168,0.096-0.416,0.144-0.745,0.144
						c-0.18,0-0.34-0.012-0.482-0.037c-0.142-0.024-0.271-0.057-0.388-0.098c-0.117-0.041-0.222-0.088-0.315-0.142
						c-0.093-0.053-0.179-0.11-0.258-0.171l-0.443,0.717c0.158,0.119,0.324,0.215,0.498,0.288c0.174,0.073,0.344,0.13,0.512,0.171
						c0.167,0.041,0.326,0.069,0.475,0.082c0.149,0.014,0.28,0.021,0.393,0.021c0.314,0,0.595-0.035,0.843-0.105
						c0.248-0.07,0.457-0.168,0.626-0.295c0.169-0.126,0.299-0.277,0.388-0.452c0.09-0.175,0.135-0.368,0.135-0.578
						C143.067,120.402,142.933,120.11,142.665,119.902z"/>
					<path d="M151.607,118.243c-0.181-0.203-0.399-0.359-0.653-0.471c-0.254-0.111-0.534-0.167-0.839-0.167
						c-0.323,0-0.618,0.056-0.884,0.167c-0.267,0.111-0.496,0.268-0.688,0.471c-0.192,0.203-0.341,0.446-0.448,0.729
						c-0.107,0.283-0.16,0.596-0.16,0.937c0,0.347,0.055,0.663,0.164,0.946c0.11,0.283,0.263,0.525,0.461,0.726
						c0.198,0.201,0.434,0.357,0.708,0.466c0.274,0.11,0.576,0.165,0.905,0.165c0.332,0,0.648-0.046,0.948-0.137
						c0.3-0.091,0.584-0.251,0.852-0.48l-0.475-0.681c-0.183,0.146-0.385,0.26-0.606,0.34c-0.221,0.081-0.441,0.121-0.66,0.121
						c-0.155,0-0.305-0.021-0.448-0.064c-0.143-0.043-0.273-0.109-0.388-0.199c-0.116-0.09-0.215-0.205-0.297-0.345
						c-0.082-0.14-0.139-0.309-0.169-0.507h3.235c0.006-0.055,0.011-0.113,0.014-0.174c0.003-0.061,0.005-0.122,0.005-0.183
						c0-0.341-0.051-0.653-0.153-0.935C151.93,118.688,151.788,118.446,151.607,118.243z M148.936,119.534
						c0.024-0.158,0.067-0.304,0.128-0.436c0.061-0.132,0.139-0.247,0.235-0.343c0.096-0.096,0.21-0.17,0.343-0.222
						c0.133-0.052,0.284-0.078,0.455-0.078c0.305,0,0.553,0.094,0.745,0.283c0.192,0.189,0.314,0.454,0.366,0.795H148.936z"/>
					<path d="M164.295,118.25c-0.152-0.195-0.341-0.351-0.567-0.468c-0.225-0.117-0.495-0.176-0.809-0.176
						c-0.308,0-0.594,0.057-0.859,0.171c-0.265,0.114-0.497,0.273-0.695,0.478c-0.198,0.204-0.353,0.447-0.466,0.729
						c-0.113,0.282-0.169,0.59-0.169,0.925c0,0.335,0.056,0.644,0.169,0.925c0.113,0.282,0.268,0.525,0.466,0.729
						c0.198,0.204,0.43,0.363,0.695,0.478c0.265,0.114,0.551,0.171,0.859,0.171c0.314,0,0.583-0.058,0.809-0.174
						c0.225-0.116,0.414-0.271,0.567-0.466v0.526h0.955v-4.378h-0.955V118.25z M164.259,120.466
						c-0.064,0.171-0.154,0.318-0.27,0.443c-0.116,0.125-0.254,0.223-0.416,0.295c-0.161,0.072-0.341,0.107-0.539,0.107
						c-0.207,0-0.392-0.037-0.555-0.112c-0.163-0.075-0.301-0.175-0.414-0.302c-0.113-0.126-0.2-0.275-0.26-0.446
						c-0.061-0.171-0.091-0.352-0.091-0.544c0-0.192,0.03-0.373,0.091-0.544c0.061-0.171,0.148-0.319,0.26-0.446
						c0.113-0.126,0.251-0.227,0.414-0.302c0.163-0.075,0.348-0.112,0.555-0.112c0.198,0,0.378,0.036,0.539,0.107
						c0.161,0.072,0.3,0.17,0.416,0.295c0.116,0.125,0.206,0.273,0.27,0.443c0.064,0.171,0.096,0.356,0.096,0.557
						S164.323,120.296,164.259,120.466z"/>
					<path d="M146.76,121.225c-0.154,0.058-0.305,0.087-0.455,0.087c-0.098,0-0.188-0.015-0.272-0.046
						c-0.084-0.03-0.157-0.078-0.219-0.144c-0.062-0.065-0.112-0.15-0.149-0.254s-0.055-0.229-0.055-0.375v-1.906h1.534v-0.868
						h-1.534v-1.325h-0.96v1.325h-0.873v0.868h0.873v1.924c0,0.582,0.138,1.011,0.414,1.286c0.276,0.276,0.662,0.414,1.158,0.414
						c0.277,0,0.526-0.043,0.747-0.128c0.146-0.056,0.281-0.121,0.408-0.192l-0.327-0.8
						C146.959,121.142,146.862,121.186,146.76,121.225z"/>
					<path d="M155.382,117.606c-0.268,0-0.51,0.049-0.727,0.146c-0.216,0.098-0.397,0.332-0.544,0.542v-0.574h-0.867v4.378h0.876
						v-2.408c0-0.186,0.026-0.352,0.078-0.498c0.052-0.146,0.123-0.27,0.215-0.37c0.091-0.101,0.201-0.177,0.329-0.228
						c0.128-0.052,0.268-0.078,0.42-0.078c0.116,0,0.241,0.014,0.375,0.041c0.068,0.014,0.132,0.031,0.192,0.052l0.282-0.914
						c-0.077-0.024-0.154-0.045-0.234-0.059C155.66,117.615,155.529,117.606,155.382,117.606z"/>
					<path d="M168.659,117.606c-0.268,0-0.51,0.049-0.727,0.146c-0.216,0.098-0.397,0.332-0.544,0.542v-0.574h-0.867v4.378h0.876
						v-2.408c0-0.186,0.026-0.352,0.078-0.498c0.052-0.146,0.123-0.27,0.215-0.37c0.091-0.101,0.201-0.177,0.329-0.228
						c0.128-0.052,0.268-0.078,0.42-0.078c0.116,0,0.241,0.014,0.375,0.041c0.068,0.014,0.132,0.031,0.192,0.052l0.282-0.914
						c-0.077-0.024-0.154-0.045-0.234-0.059C168.937,117.615,168.805,117.606,168.659,117.606z"/>
					<path d="M173.12,115.94v2.309c-0.152-0.195-0.341-0.351-0.567-0.468c-0.226-0.117-0.495-0.176-0.809-0.176
						c-0.308,0-0.594,0.057-0.859,0.171c-0.265,0.114-0.497,0.273-0.695,0.478c-0.198,0.204-0.353,0.447-0.466,0.729
						c-0.113,0.282-0.169,0.59-0.169,0.925c0,0.335,0.056,0.644,0.169,0.925c0.113,0.282,0.268,0.525,0.466,0.729
						c0.198,0.204,0.429,0.363,0.695,0.478c0.265,0.114,0.551,0.171,0.859,0.171c0.314,0,0.583-0.058,0.809-0.174
						c0.225-0.116,0.414-0.271,0.567-0.466v0.526h0.955v-6.157H173.12z M173.083,120.466c-0.064,0.171-0.154,0.318-0.27,0.443
						c-0.116,0.125-0.254,0.223-0.416,0.295c-0.161,0.072-0.341,0.107-0.539,0.107c-0.207,0-0.392-0.037-0.555-0.112
						c-0.163-0.075-0.301-0.175-0.414-0.302c-0.113-0.126-0.2-0.275-0.26-0.446c-0.061-0.171-0.091-0.352-0.091-0.544
						c0-0.192,0.03-0.373,0.091-0.544c0.061-0.171,0.148-0.319,0.26-0.446c0.113-0.126,0.251-0.227,0.414-0.302
						c0.163-0.075,0.348-0.112,0.555-0.112c0.198,0,0.378,0.036,0.539,0.107c0.161,0.072,0.3,0.17,0.416,0.295
						c0.116,0.125,0.206,0.273,0.27,0.443c0.064,0.171,0.096,0.356,0.096,0.557S173.147,120.296,173.083,120.466z"/>
					<path d="M157.668,118.896c0.122-0.123,0.267-0.219,0.434-0.288c0.168-0.069,0.349-0.103,0.544-0.103v0
						c0.214,0,0.414,0.034,0.598,0.103c0.178,0.066,0.332,0.159,0.463,0.276l0.46-0.765c-0.172-0.138-0.366-0.251-0.582-0.339
						c-0.288-0.117-0.601-0.176-0.939-0.176c-0.338,0-0.651,0.059-0.939,0.176c-0.288,0.117-0.536,0.279-0.745,0.484
						c-0.209,0.206-0.372,0.449-0.491,0.729c-0.119,0.28-0.178,0.585-0.178,0.914c0,0.329,0.059,0.634,0.178,0.914
						c0.119,0.28,0.283,0.523,0.491,0.729c0.209,0.206,0.457,0.367,0.745,0.484c0.288,0.117,0.601,0.176,0.939,0.176
						c0.338,0,0.651-0.059,0.939-0.176c0.216-0.088,0.41-0.201,0.582-0.339l-0.46-0.765c-0.131,0.117-0.285,0.21-0.463,0.276
						c-0.184,0.069-0.384,0.103-0.598,0.103v0c-0.195,0-0.376-0.034-0.544-0.103c-0.168-0.068-0.312-0.164-0.434-0.288
						c-0.122-0.123-0.218-0.271-0.288-0.443c-0.07-0.172-0.105-0.362-0.105-0.569c0-0.207,0.035-0.397,0.105-0.569
						C157.45,119.168,157.546,119.02,157.668,118.896z"/>
				</g>
				<g>
					<path fill="#E20D17" d="M143.536,96.688c0-5.422,2.533-10.249,6.477-13.373c-2.908-2.304-6.582-3.683-10.58-3.683
						c-9.42,0-17.056,7.636-17.056,17.056s7.636,17.056,17.056,17.056c3.998,0,7.672-1.379,10.58-3.683
						C146.069,106.937,143.536,102.11,143.536,96.688z"/>
					<path fill="#EA610A" d="M143.536,96.688c0,5.422,2.533,10.249,6.477,13.373c3.944-3.124,6.477-7.951,6.477-13.373
						s-2.533-10.249-6.477-13.373C146.069,86.439,143.536,91.266,143.536,96.688z"/>
					<path fill="#F59E00" d="M160.593,79.632c-3.998,0-7.672,1.379-10.58,3.683c3.944,3.124,6.477,7.951,6.477,13.373
						s-2.533,10.249-6.477,13.373c2.908,2.304,6.582,3.683,10.58,3.683c9.42,0,17.056-7.636,17.056-17.056
						S170.013,79.632,160.593,79.632z"/>
				</g>
			</g>
		</g>
	</g>
	<g>
		<path fill="#FFFFFF" d="M289.78,69.844h-73.526c-3.189,0-5.7,0.981-7.464,2.918c-1.828,1.871-2.755,4.283-2.755,7.171v41.978
			c0,2.877,0.941,5.304,2.797,7.213c0.026,0.027,0.052,0.053,0.079,0.079c1.91,1.856,4.381,2.797,7.344,2.797h73.526
			c6.303,0,10.219-3.866,10.219-10.088V79.933C299.999,73.709,296.083,69.844,289.78,69.844L289.78,69.844z"/>
		<g>
			<path fill-rule="evenodd" clip-rule="evenodd" fill="#2E77BC" d="M296.104,79.933c0-4.139-2.151-6.192-6.323-6.192h-73.526
				c-2.086,0-3.618,0.553-4.628,1.694c-1.141,1.142-1.695,2.608-1.695,4.498v41.979c0,1.889,0.554,3.324,1.695,4.497
				c1.174,1.141,2.673,1.695,4.628,1.695h73.526c4.172,0,6.323-2.086,6.323-6.192V79.933L296.104,79.933z"/>
			<path fill-rule="evenodd" clip-rule="evenodd" fill="#FFFFFF" d="M289.781,74.718c3.455,0,5.215,1.761,5.215,5.215v41.979
				c0,3.487-1.76,5.214-5.215,5.214h-73.526c-1.662,0-2.933-0.489-3.879-1.466c-0.977-0.946-1.466-2.249-1.466-3.748V79.933
				c0-3.455,1.727-5.215,5.345-5.215H289.781L289.781,74.718z"/>
			<path fill-rule="evenodd" clip-rule="evenodd" fill="#006DB6" d="M292.584,121.063c0,2.412-1.174,3.651-3.52,3.651h-72.223
				c-2.249,0-3.389-1.239-3.389-3.651l0,0v-9.092V80.65c0-1.336,0.195-2.249,0.619-2.803c0.489-0.489,1.369-0.717,2.77-0.717l0,0
				h72.223c2.347,0,3.52,1.141,3.52,3.52V121.063z"/>
			<g>
				<path fill="#FFFFFF" d="M282.891,98.542h5.992V84.619h-6.521v1.939l-1.234-1.939h-5.64v2.467l-1.057-2.467h-9.165
					c-0.352,0-0.881,0-1.234,0c-0.352,0-0.705,0.176-1.057,0.176c-0.352,0-0.529,0.176-0.881,0.352
					c-0.352,0.176-0.529,0.176-0.881,0.352v-0.352v-0.529h-29.785l-0.881,2.291l-0.881-2.291h-7.05v2.467l-1.058-2.467h-5.64
					l-2.467,5.992v7.931h4.054l0.705-1.939h1.41l0.705,1.939h31.018V96.78l1.234,1.762h8.636V98.19v-0.705
					c0.176,0.176,0.529,0.176,0.705,0.352c0.176,0.176,0.529,0.176,0.705,0.352c0.352,0.176,0.705,0.176,1.057,0.176
					c0.352,0,0.881,0,1.234,0h5.111l0.705-1.939h1.41l0.705,1.939h8.636v-1.762L282.891,98.542z M292.584,116.166v-13.042h-48.466
					l-1.234,1.762l-1.234-1.762h-14.099v13.923h14.099l1.234-1.762l1.234,1.762h8.812v-2.996h-0.352
					c1.234,0,2.291-0.176,3.172-0.529v3.701h6.345v-1.762l1.234,1.762h26.26C290.645,116.871,291.703,116.695,292.584,116.166
					L292.584,116.166z"/>
				<path fill="#006DB6" d="M289.588,112.818h-4.758v1.939h4.582c1.939,0,3.172-1.234,3.172-2.996c0-1.762-1.058-2.644-2.82-2.644
					h-2.115c-0.529,0-0.881-0.352-0.881-0.881c0-0.529,0.352-0.881,0.881-0.881h4.054l0.881-1.939h-4.759
					c-1.939,0-3.172,1.234-3.172,2.82c0,1.762,1.058,2.644,2.82,2.644h2.115c0.529,0,0.881,0.353,0.881,0.881
					C290.645,112.465,290.293,112.818,289.588,112.818L289.588,112.818z M280.952,112.818h-4.758v1.939h4.582
					c1.939,0,3.172-1.234,3.172-2.996c0-1.762-1.057-2.644-2.82-2.644h-2.115c-0.529,0-0.881-0.352-0.881-0.881
					c0-0.529,0.353-0.881,0.881-0.881h4.054l0.881-1.939h-4.758c-1.939,0-3.172,1.234-3.172,2.82c0,1.762,1.057,2.644,2.82,2.644
					h2.115c0.529,0,0.881,0.353,0.881,0.881C282.009,112.465,281.481,112.818,280.952,112.818L280.952,112.818z M274.784,107.178
					v-1.939h-7.402v9.341h7.402v-1.939h-5.287v-1.939h5.111v-1.939h-5.111v-1.762h5.287V107.178z M262.799,107.178
					c0.881,0,1.234,0.529,1.234,1.057c0,0.529-0.352,1.057-1.234,1.057h-2.644v-2.291L262.799,107.178L262.799,107.178z
					 M260.156,111.232h1.057l2.82,3.348h2.644l-3.172-3.525c1.586-0.352,2.467-1.41,2.467-2.82c0-1.762-1.234-2.996-3.172-2.996
					h-4.935v9.341h2.115L260.156,111.232L260.156,111.232z M254.516,108.412c0,0.705-0.352,1.234-1.234,1.234h-2.82v-2.467h2.644
					C253.987,107.178,254.516,107.707,254.516,108.412L254.516,108.412z M248.347,105.239v9.341h2.115v-3.172h2.82
					c1.939,0,3.349-1.234,3.349-3.172c0-1.762-1.234-3.172-3.173-3.172L248.347,105.239L248.347,105.239z M245.175,114.58h2.644
					l-3.701-4.758l3.701-4.582h-2.644l-2.291,2.996l-2.291-2.996h-2.644l3.701,4.582l-3.701,4.582h2.644l2.291-2.996L245.175,114.58
					z M237.244,107.178v-1.939h-7.402v9.341h7.402v-1.939h-5.287v-1.939h5.111v-1.939h-5.111v-1.762h5.287V107.178z M280.071,90.612
					l3.701,5.64h2.644V86.91H284.3v6.168l-0.529-0.881l-3.348-5.287h-2.82v9.341h2.115v-6.345L280.071,90.612z M270.906,90.435
					l0.705-1.939l0.705,1.939l0.881,2.115h-3.173L270.906,90.435z M274.607,96.251h2.291l-4.053-9.341h-2.82l-4.053,9.341h2.291
					l0.881-1.939h4.582L274.607,96.251z M264.738,96.251L264.738,96.251l0.881-1.939h-0.529c-1.586,0-2.467-1.057-2.467-2.644
					v-0.176c0-1.586,0.881-2.644,2.467-2.644h2.291V86.91h-2.467c-2.82,0-4.406,1.939-4.406,4.582v0.176
					C260.508,94.489,262.094,96.251,264.738,96.251L264.738,96.251z M256.807,96.251h2.115v-4.23v-4.935h-2.115v4.759V96.251z
					 M252.225,88.849c0.881,0,1.234,0.529,1.234,1.057c0,0.529-0.352,1.058-1.234,1.058h-2.644v-2.291L252.225,88.849
					L252.225,88.849z M249.581,92.903h1.057l2.82,3.349h2.644l-3.172-3.525c1.586-0.352,2.467-1.41,2.467-2.82
					c0-1.762-1.234-2.996-3.173-2.996h-4.935v9.341h2.115L249.581,92.903L249.581,92.903z M245.704,88.849V86.91h-7.402v9.341h7.402
					v-1.939h-5.287v-1.939h5.111v-1.939h-5.111v-1.762h5.287V88.849z M229.666,96.251h1.939l2.644-7.578v7.578h2.115V86.91h-3.525
					l-2.115,6.345l-2.115-6.345h-3.525v9.341h2.115v-7.578L229.666,96.251z M218.21,90.435l0.705-1.939l0.705,1.939l0.881,2.115
					h-3.172L218.21,90.435z M221.911,96.251h2.291l-4.054-9.341h-2.644l-4.054,9.341h2.291l0.881-1.939h4.582L221.911,96.251z"/>
			</g>
		</g>
	</g>
</g>
</svg>
