<?xml version="1.0" encoding="utf-8"?>
<!-- Generator: Adobe Illustrator 17.0.0, SVG Export Plug-In . SVG Version: 6.00 Build 0)  -->
<!DOCTYPE svg PUBLIC "-//W3C//DTD SVG 1.1//EN" "http://www.w3.org/Graphics/SVG/1.1/DTD/svg11.dtd">
<svg version="1.1" id="Capa_1" xmlns="http://www.w3.org/2000/svg" xmlns:xlink="http://www.w3.org/1999/xlink" x="0px" y="0px"
	 width="104px" height="104px" viewBox="0 0 104 104" enable-background="new 0 0 104 104" xml:space="preserve">
<g>
	<rect x="2" y="2" fill="#3AA8DB" width="100" height="100"/>
	<path fill="#FFFFFF" d="M100,4v96H4V4H100 M104,0H0v104h104V0L104,0z"/>
</g>
<path fill="#FFFFFF" d="M84,34.392c-2.207,0.979-4.58,1.641-7.068,1.938c2.539-1.523,4.491-3.936,5.41-6.811
	c-2.379,1.411-5.012,2.436-7.816,2.987c-2.244-2.392-5.443-3.887-8.983-3.887c-6.799,0-12.312,5.512-12.312,12.31
	c0,0.964,0.109,1.904,0.319,2.805c-10.23-0.513-19.302-5.414-25.373-12.861c-1.059,1.817-1.665,3.932-1.665,6.188
	c0,4.271,2.172,8.038,5.475,10.246c-2.018-0.064-3.916-0.618-5.575-1.541c-0.001,0.053-0.001,0.104-0.001,0.155
	c0,5.964,4.243,10.938,9.874,12.07c-1.032,0.28-2.12,0.432-3.243,0.432c-0.793,0-1.564-0.075-2.315-0.221
	c1.565,4.891,6.112,8.448,11.499,8.549c-4.213,3.302-9.521,5.271-15.288,5.271c-0.994,0-1.974-0.06-2.937-0.172
	c5.447,3.491,11.918,5.53,18.87,5.53c22.643,0,35.021-18.758,35.021-35.025c0-0.533-0.012-1.064-0.033-1.592
	C80.264,39.028,82.35,36.86,84,34.392z"/>
</svg>
