<?xml version="1.0" encoding="utf-8"?>
<!-- Generator: Adobe Illustrator 15.0.0, SVG Export Plug-In . SVG Version: 6.00 Build 0)  -->
<!DOCTYPE svg PUBLIC "-//W3C//DTD SVG 1.1//EN" "http://www.w3.org/Graphics/SVG/1.1/DTD/svg11.dtd">
<svg version="1.1" id="Capa_1" xmlns="http://www.w3.org/2000/svg" xmlns:xlink="http://www.w3.org/1999/xlink" x="0px" y="0px"
	 width="40px" height="40px" viewBox="0 0 40 40" enable-background="new 0 0 40 40" xml:space="preserve">
<path fill="#FFFFFF" d="M39.461,34.201L29.221,23.96c1.461-2.387,2.348-5.167,2.348-8.175C31.568,7.069,24.498,0,15.784,0
	C7.069,0,0,7.069,0,15.785c0,8.714,7.069,15.785,15.784,15.785c3.007,0,5.788-0.887,8.175-2.343l10.24,10.236
	c0.719,0.719,1.911,0.714,2.631,0l2.631-2.631C40.18,36.112,40.18,34.92,39.461,34.201z M15.784,26.308
	c-5.811,0-10.523-4.711-10.523-10.523c0-5.811,4.712-10.523,10.523-10.523c5.812,0,10.522,4.712,10.522,10.523
	C26.307,21.597,21.596,26.308,15.784,26.308z"/>
</svg>
