<?xml version="1.0" encoding="utf-8"?>
<!-- Generator: Adobe Illustrator 17.0.0, SVG Export Plug-In . SVG Version: 6.00 Build 0)  -->
<!DOCTYPE svg PUBLIC "-//W3C//DTD SVG 1.1//EN" "http://www.w3.org/Graphics/SVG/1.1/DTD/svg11.dtd">
<svg version="1.1" id="Layer_1" xmlns="http://www.w3.org/2000/svg" xmlns:xlink="http://www.w3.org/1999/xlink" x="0px" y="0px"
	 width="34px" height="34px" viewBox="0 0 34 34" enable-background="new 0 0 34 34" xml:space="preserve">
<g>
	<circle fill="#89418D" cx="17" cy="17" r="17"/>
</g>
<g id="g15" transform="matrix(1.452588,0,0,1.452588,-115.17955,-97.147891)">
	<path id="path17-6" fill="#FFFFFF" d="M96.477,82.067c-0.428-0.345-0.886-0.654-1.336-0.97c-0.898-0.631-1.72-0.68-2.391,0.335
		c-0.376,0.57-0.904,0.595-1.455,0.345c-1.519-0.689-2.692-1.75-3.38-3.294c-0.304-0.683-0.3-1.296,0.411-1.779
		c0.377-0.256,0.756-0.558,0.726-1.116c-0.04-0.728-1.807-3.161-2.505-3.418c-0.289-0.106-0.577-0.099-0.87-0.001
		c-1.637,0.55-2.315,1.897-1.666,3.491c1.937,4.755,5.346,8.066,10.038,10.087c0.268,0.115,0.565,0.161,0.715,0.202
		c1.068,0.011,2.32-1.019,2.681-2.04C97.794,82.926,97.059,82.536,96.477,82.067L96.477,82.067z"/>
	<path id="path19-1" fill="#FFFFFF" d="M91.216,72.657c3.43,0.528,5.013,2.159,5.449,5.614c0.04,0.319-0.078,0.799,0.377,0.808
		c0.476,0.009,0.361-0.464,0.365-0.784c0.04-3.254-2.797-6.271-6.092-6.382c-0.249,0.036-0.763-0.171-0.795,0.386
		C90.498,72.675,90.931,72.614,91.216,72.657L91.216,72.657z"/>
	<path id="path21-2" fill="#FFFFFF" d="M91.887,73.605c-0.33-0.04-0.766-0.195-0.843,0.263c-0.08,0.481,0.405,0.432,0.717,0.502
		c2.119,0.474,2.856,1.245,3.205,3.346c0.051,0.306-0.05,0.783,0.47,0.704c0.386-0.059,0.247-0.468,0.279-0.706
		C95.732,75.695,94.003,73.859,91.887,73.605L91.887,73.605z"/>
	<path id="path23" fill="#FFFFFF" d="M92.081,75.255c-0.22,0.005-0.436,0.029-0.517,0.265c-0.122,0.352,0.134,0.436,0.395,0.478
		c0.869,0.14,1.327,0.652,1.413,1.519c0.023,0.235,0.173,0.426,0.4,0.399c0.315-0.038,0.343-0.318,0.334-0.584
		C94.121,76.357,93.02,75.231,92.081,75.255L92.081,75.255z"/>
</g>
</svg>
