<?xml version="1.0" encoding="utf-8"?>
<!-- Generator: Adobe Illustrator 17.0.0, SVG Export Plug-In . SVG Version: 6.00 Build 0)  -->
<!DOCTYPE svg PUBLIC "-//W3C//DTD SVG 1.1//EN" "http://www.w3.org/Graphics/SVG/1.1/DTD/svg11.dtd">
<svg version="1.1" id="Layer_1" xmlns="http://www.w3.org/2000/svg" xmlns:xlink="http://www.w3.org/1999/xlink" x="0px" y="0px"
	 width="34px" height="34px" viewBox="0 0 34 34" enable-background="new 0 0 34 34" xml:space="preserve">
<g>
	<circle fill="#89418D" cx="17" cy="17" r="17"/>
</g>
<g>
	<path fill="#FFFFFF" d="M20.275,12.005h1.534l-1.052,5.936c-0.118,0.687-0.121,1.183-0.011,1.489
		c0.109,0.308,0.353,0.461,0.734,0.461c0.379,0,0.751-0.088,1.117-0.263c0.365-0.176,0.693-0.446,0.986-0.811
		c0.292-0.365,0.529-0.824,0.712-1.38c0.183-0.554,0.274-1.212,0.274-1.972c0-1.095-0.183-2.03-0.547-2.804
		c-0.365-0.774-0.865-1.413-1.501-1.916c-0.635-0.504-1.383-0.873-2.245-1.106c-0.862-0.234-1.789-0.35-2.782-0.35
		c-1.139,0-2.198,0.204-3.177,0.613s-1.829,0.972-2.551,1.686c-0.724,0.716-1.29,1.566-1.699,2.552
		c-0.408,0.986-0.613,2.056-0.613,3.21c0,1.139,0.172,2.162,0.515,3.066c0.343,0.906,0.843,1.676,1.501,2.311
		c0.657,0.636,1.471,1.125,2.442,1.468c0.971,0.343,2.084,0.514,3.341,0.514c0.422,0,0.906-0.051,1.446-0.153
		c0.54-0.103,1.029-0.256,1.467-0.46l0.679,2.103c-0.599,0.292-1.209,0.496-1.829,0.614c-0.62,0.117-1.333,0.175-2.136,0.175
		c-1.417,0-2.728-0.204-3.933-0.613c-1.204-0.409-2.249-1.015-3.132-1.818c-0.884-0.803-1.574-1.8-2.07-2.99
		C7.248,20.377,7,19.001,7,17.438c0-1.592,0.285-3.03,0.854-4.315c0.57-1.285,1.337-2.381,2.301-3.286
		c0.964-0.905,2.081-1.603,3.351-2.092s2.614-0.734,4.031-0.734c1.343,0,2.592,0.193,3.746,0.58c1.153,0.387,2.153,0.942,3,1.665
		c0.847,0.723,1.512,1.606,1.994,2.651C26.759,12.951,27,14.138,27,15.466c0,0.935-0.164,1.811-0.493,2.629
		c-0.329,0.818-0.782,1.527-1.358,2.125c-0.578,0.599-1.25,1.073-2.016,1.424c-0.767,0.35-1.588,0.525-2.464,0.525
		c-0.365,0-0.705-0.039-1.02-0.12c-0.314-0.08-0.576-0.215-0.788-0.405c-0.212-0.19-0.369-0.439-0.471-0.745
		c-0.103-0.307-0.132-0.686-0.087-1.139h-0.088c-0.219,0.307-0.457,0.606-0.712,0.898c-0.255,0.292-0.537,0.551-0.843,0.777
		c-0.307,0.226-0.643,0.406-1.007,0.537c-0.365,0.132-0.767,0.197-1.205,0.197c-0.351,0-0.686-0.077-1.007-0.23
		c-0.322-0.153-0.599-0.368-0.833-0.646c-0.234-0.277-0.421-0.613-0.559-1.007c-0.139-0.394-0.208-0.833-0.208-1.315
		c0-0.905,0.145-1.785,0.438-2.639c0.291-0.854,0.69-1.61,1.194-2.268c0.505-0.657,1.087-1.186,1.752-1.587
		c0.665-0.402,1.369-0.603,2.114-0.603c0.511,0,0.941,0.077,1.292,0.23c0.35,0.153,0.672,0.354,0.964,0.603L20.275,12.005z
		 M18.895,14.656c-0.19-0.16-0.388-0.285-0.591-0.373c-0.205-0.087-0.461-0.131-0.767-0.131c-0.438,0-0.843,0.124-1.216,0.372
		c-0.372,0.249-0.693,0.57-0.964,0.964c-0.271,0.394-0.479,0.836-0.624,1.325c-0.146,0.489-0.219,0.967-0.219,1.434
		c0,0.482,0.098,0.876,0.296,1.183c0.196,0.308,0.537,0.461,1.018,0.461c0.205,0,0.423-0.062,0.658-0.186
		c0.234-0.124,0.46-0.289,0.679-0.493c0.218-0.205,0.43-0.439,0.635-0.701c0.205-0.263,0.387-0.54,0.547-0.833L18.895,14.656z"/>
</g>
</svg>
