<?xml version="1.0" encoding="utf-8"?>
<!-- Generator: Adobe Illustrator 17.0.0, SVG Export Plug-In . SVG Version: 6.00 Build 0)  -->
<!DOCTYPE svg PUBLIC "-//W3C//DTD SVG 1.1//EN" "http://www.w3.org/Graphics/SVG/1.1/DTD/svg11.dtd">
<svg version="1.1" id="Layer_1" xmlns="http://www.w3.org/2000/svg" xmlns:xlink="http://www.w3.org/1999/xlink" x="0px" y="0px"
	 width="40px" height="40px" viewBox="0 0 40 40" enable-background="new 0 0 40 40" xml:space="preserve">
<g>
	<g>
		<circle fill="#89418D" cx="20" cy="20" r="20"/>
	</g>
	<path fill="#FFFFFF" d="M25.771,18.772C26.888,17.425,27.5,15.742,27.5,14c0-4.135-3.365-7.5-7.5-7.5s-7.5,3.365-7.5,7.5
		s3.365,7.5,7.5,7.5c1.361,0,2.697-0.376,3.872-1.088c3.537,1.385,4.553,4.525,4.934,8.815H11.195c0.231-2.635,0.649-5.133,2.7-6.92
		c0.473-0.412,0.522-1.131,0.11-1.603c-0.395-0.455-1.148-0.506-1.603-0.11c-3.172,2.762-3.538,6.899-3.538,9.77
		c0,0.627,0.51,1.136,1.136,1.136h20c0.627,0,1.136-0.51,1.136-1.136C31.136,26.535,30.574,21.203,25.771,18.772z M20,19.227
		c-2.882,0-5.227-2.345-5.227-5.227S17.118,8.773,20,8.773c2.883,0,5.227,2.345,5.227,5.227S22.883,19.227,20,19.227z"/>
</g>
</svg>
